<svg id="Layer_1" data-name="Layer 1" xmlns="http://www.w3.org/2000/svg" xmlns:xlink="http://www.w3.org/1999/xlink" viewBox="0 0 5102.03 953.79"><defs><style>.cls-1{fill:url(#linear-gradient);}.cls-2{fill:#fff;}</style><linearGradient id="linear-gradient" x1="432.64" y1="2222.87" x2="1400.65" y2="2008.03" gradientUnits="userSpaceOnUse"><stop offset="0" stop-color="#fff"/><stop offset="0.37" stop-color="#fff"/><stop offset="0.79" stop-color="#fff"/><stop offset="1" stop-color="#fff"/></linearGradient></defs><path class="cls-1" d="M1400.93,2594.89H754.12c-189.25,0-343.22-154-343.22-343.22,0-105.92,47-203.8,129-268.54a343.56,343.56,0,0,1,37.6-25.78,332.23,332.23,0,0,1,143-45.56q14.28-1.18,28.8-1.2c6.47,0,12.91.21,19.33.57a347.25,347.25,0,0,1,265.14,148l.26.36.25.36L1113,2174.74a195.93,195.93,0,0,1-52,7,202.7,202.7,0,0,1-80.27-16.65l-32-46.63a244.08,244.08,0,0,0-199.5-104.22,235.26,235.26,0,0,0-75.71,12.44,234.33,234.33,0,0,0-69.43,37.81c-53.33,42.1-89.62,107.16-89.62,187.2h0c0,132.33,107.27,239.6,239.59,239.6h450.16l-88.88-129.71a371.82,371.82,0,0,0,104.45-30.9l69.92,102Zm-344.76-953.78H409.37l111.16,162.21,69.91,102a371.82,371.82,0,0,1,104.45-30.9L606,1744.74h450.16c132.33,0,239.59,107.26,239.59,239.59h0c0,80-36.29,145.1-89.61,187.2a235,235,0,0,1-32.17,21.34,231.73,231.73,0,0,1-37.27,16.47,235.15,235.15,0,0,1-75.7,12.44,241.45,241.45,0,0,1-44.24-4.14,244.23,244.23,0,0,1-155.26-100.08l-32-46.63a202.69,202.69,0,0,0-80.26-16.65,195.93,195.93,0,0,0-52,7L776,2176.15l.25.36.26.36a347.23,347.23,0,0,0,265.14,148c6.42.36,12.87.57,19.34.57q14.51,0,28.79-1.19a332.36,332.36,0,0,0,143-45.57,342.16,342.16,0,0,0,37.6-25.78c82-64.74,129-162.62,129-268.54C1399.39,1795.08,1245.43,1641.11,1056.17,1641.11Z" transform="translate(-409.37 -1641.11)"/><rect class="cls-2" x="2300.54" y="225.28" width="102.62" height="495.83"/><path class="cls-2" d="M3354.25,1997.53a189.41,189.41,0,0,0-23-55l0,0a185.88,185.88,0,0,0-72.59-65.84c-30.13-15.51-65-23.37-103.61-23.37-4.69,0-12.37.29-23.47.88s-23.83,3-37.67,7.23-28.36,10.88-43.25,19.81a141,141,0,0,0-33.05,28.2v-43h-96.5v495.82H3023.7V2092.45c0-47.19,11.25-83.49,33.42-107.9,22-24.23,51.74-36.52,88.29-36.52,28.84,0,51.18,5.78,66.38,17.18,15.44,11.59,26.88,25.38,34,41a139.69,139.69,0,0,1,12.59,48.22c1.15,16.74,1.73,29.83,1.73,38.92v268.88h102.63v-292.6C3362.14,2041.94,3359.29,2017.69,3354.25,1997.53Z" transform="translate(-409.37 -1641.11)"/><path class="cls-2" d="M2362,1854c-143.44,0-260.14,116.7-260.14,260.14S2218.58,2374.3,2362,2374.3s260.15-116.7,260.15-260.15S2505.47,1854,2362,1854Zm0,427.94c-92.52,0-167.79-75.28-167.79-167.8s75.27-167.79,167.79-167.79,167.8,75.27,167.8,167.79S2454.54,2282,2362,2282Z" transform="translate(-409.37 -1641.11)"/><path class="cls-2" d="M2761.21,1685.48a58.86,58.86,0,1,0,58.86,58.85A58.92,58.92,0,0,0,2761.21,1685.48Z" transform="translate(-409.37 -1641.11)"/><path class="cls-2" d="M1878.52,1946.43a166.66,166.66,0,0,1,118.59,49.2l2.59,2.59L2065,1933l-2.59-2.59a258.37,258.37,0,0,0-183.86-76.28c-143.45,0-260.15,116.7-260.15,260.14s116.7,260.14,260.15,260.14a258.37,258.37,0,0,0,183.86-76.28l2.59-2.59-65.27-65.27-2.59,2.59a166.66,166.66,0,0,1-118.59,49.2c-92.52,0-167.79-75.27-167.79-167.79S1786,1946.43,1878.52,1946.43Z" transform="translate(-409.37 -1641.11)"/><polygon class="cls-2" points="3965.7 562.36 3843.69 229.14 3842.29 225.28 3732.53 225.28 3927.95 717.39 3929.42 721.11 4001.21 721.11 4193.15 233.31 4196.32 225.28 4086.57 225.28 3965.7 562.36"/><polygon class="cls-2" points="4987.31 225.28 4987.3 50.3 4987.16 44.52 4884.62 44.52 4884.63 225.28 4769.9 225.28 4769.9 320.03 4884.63 320.03 4884.63 715.24 4884.79 721.11 4987.31 721.11 4987.31 320.03 5102.03 320.03 5102.03 225.28 4987.31 225.28"/><rect class="cls-2" x="3550.7" y="225.28" width="102.61" height="495.83"/><circle class="cls-2" cx="4011.37" cy="1744.33" r="58.86" transform="translate(982.71 3606.53) rotate(-76.72)"/><path class="cls-2" d="M3782.44,1866.49h0a161.47,161.47,0,0,0-34.53,7.26,163.44,163.44,0,0,0-36.72,17.66,111.68,111.68,0,0,0-24.62,21.51v-45.58h-96.51v494.87h102.62V2100.72c0-33.76,5-60,15-78s21.74-30.73,35.22-38.3a137.76,137.76,0,0,1,23.85-9.72c7.05-2,26.64-6.64,56.19-7.08l41.37-.05V1865.16h-49.54C3808.75,1865.16,3792.37,1865.62,3782.44,1866.49Z" transform="translate(-409.37 -1641.11)"/><path class="cls-2" d="M5140.36,2089.57a258.77,258.77,0,0,0-245.47-235.21h-.17c-1.72-.09-3.56-.16-5.77-.22l-1,0c-2.22,0-4.44-.08-6.58-.08h-.12c-2.14,0-4.31,0-6.46.08l-.64,0h-.44c-2.27.07-4,.13-5.64.22l-.36,0h-.05a260.73,260.73,0,0,0-84.73,18.68,258.47,258.47,0,0,0-156.42,188.74h0v0c-.34,1.65-.65,3.3-1,5-.19,1.05-.38,2.11-.56,3.16-.08.45-.15.91-.23,1.37l-.07.45h0a261.51,261.51,0,0,0-3.4,36.37c-.05,2.28-.07,4.18-.07,6s0,4,.07,6.1c0,1.51.1,3,.16,4.53l.05,1.2h0a259.4,259.4,0,0,0,10.64,62.79h0l.31,1.05c.33,1.07.66,2.13,1,3.19l.06.19c.38,1.2.76,2.39,1.16,3.57l.43,1.26h0a259.91,259.91,0,0,0,206.48,173.23h0l1.14.17c1.63.24,3.27.47,4.91.68l1.5.19.53.06c1.36.17,2.73.33,4.1.47l2.36.24c1.28.12,2.57.24,3.86.34l2.47.2q1.93.13,3.87.24l.59,0,1.84.1c1.39.07,2.8.11,4.2.16l.77,0,1.33,0c2.22.05,4.27.08,6.2.08h.23c1.62,0,3.25,0,4.87-.05h.1a258.86,258.86,0,0,0,139.67-44.05l1.46-1,.59-.4.83-.58.07,0,.14-.1c.78-.54,1.52-1.06,2.2-1.55h0a263.1,263.1,0,0,0,33.8-28.51l2.59-2.59-65.28-65.28-2.59,2.59a167,167,0,0,1-113.67,49.13l-.47,0c-1.31,0-2.63,0-4,.05h-.5c-1.31,0-2.62,0-3.92-.05l-1,0-.48,0-2.35-.09-1.95-.1-1.62-.1-2.56-.19h-.14q-1.71-.15-3.42-.33h0c-.81-.08-1.61-.18-2.41-.27l-.8-.1c-1.08-.13-2.16-.28-3.23-.44-.88-.12-1.75-.26-2.64-.4l-.36-.06a168.7,168.7,0,0,1-132.6-113.86h414.45l.87-4.82a263,263,0,0,0,4.3-46.93c0-7.86-.4-16.13-1.19-24.58Zm-423.88-5.32a168.49,168.49,0,0,1,149.33-137.16l.82-.07c.93-.08,1.86-.16,2.79-.22.63,0,1.26-.09,1.9-.12l.26,0c.55,0,1.09-.07,1.64-.09,1.09-.06,2.19-.1,3.29-.13l.66,0h.46c2.64-.06,5.3-.06,7.94,0h.08l.56,0c1.14,0,2.27.07,3.4.13l1.43.08.38,0,2,.13c.91.06,1.81.14,2.71.22l.91.08a168.47,168.47,0,0,1,149.3,137.15Z" transform="translate(-409.37 -1641.11)"/></svg>