<svg width="243" height="50" viewBox="0 0 243 50" fill="none" xmlns="http://www.w3.org/2000/svg"><title>old-ihodl</title><path d="M88.05 1.174H76.132v47.567h11.92V1.174zM71.347 19.044h-14.27V1.174H45.242v47.568h11.835V30.956h14.27V19.044zM223.694 1.174h-11.919v47.567h11.919V1.174zM242.708 48.736V36.825h-14.269v11.913h14.269zM122.549 0c-13.766 0-25.014 11.158-25.014 25 0 13.758 11.164 25 25.014 25 13.766 0 25.013-11.158 25.013-25-.084-13.842-11.247-25-25.013-25zm0 38.087c-7.219 0-13.094-5.872-13.094-13.087s5.875-13.087 13.094-13.087c7.218 0 13.094 5.872 13.094 13.087s-5.876 13.087-13.094 13.087zM30.973 1.174H19.054v47.567h11.92V1.174z" fill="#fff"/><path d="M7.185 15.537a7.183 7.183 0 0 0 7.186-7.181 7.183 7.183 0 0 0-7.186-7.181A7.183 7.183 0 0 0 0 8.355a7.183 7.183 0 0 0 7.185 7.182z" fill="#fff"/><path d="M178.451 1.174h-21.404v30.957h11.919V13.087h9.485c6.547 0 11.919 5.285 11.919 11.913 0 6.543-5.288 11.913-11.919 11.913h-9.485v11.912h9.485c13.178 0 23.754-10.654 23.754-23.741 0-13.088-10.576-23.91-23.754-23.91z" fill="#fff"/></svg>