<?xml version="1.0" encoding="utf-8"?>
<!-- Generator: Adobe Illustrator 25.4.1, SVG Export Plug-In . SVG Version: 6.00 Build 0)  -->
<svg version="1.1" id="Calque_1" xmlns:v="https://vecta.io/nano"
	 xmlns="http://www.w3.org/2000/svg" xmlns:xlink="http://www.w3.org/1999/xlink" x="0px" y="0px" viewBox="0 0 272.4 39.3"
	 style="enable-background:new 0 0 272.4 39.3;" xml:space="preserve">
<style type="text/css">
	.st0{fill:#FFFFFF;}
</style>
<path class="st0" d="M0,11.1h10.9v27.5h6.6V11.1h10.9V5H0V11.1z M52.4,32.4H39.7v-8h11v-6.2h-11v-7.1h12.7V5H33.1v33.6h19.3
	L52.4,32.4z M73.1,33.1c-6,0-10-4.8-10-11.3s4-11.2,9.9-11.2c4.5,0,7,2,8.2,5.3h7.2C86.6,9.1,81.6,4.4,73,4.4
	c-9.8,0-16.8,7.3-16.8,17.4s7,17.5,16.8,17.5c8.6,0,13.7-4.5,15.5-11.8h-7C80.5,30.7,77.8,33.1,73.1,33.1z M99.8,24.3h6.7v0.1h7.7
	v14.2h6.6V24.3h7.6c0.9,1.1,2.2,1.9,3.8,1.9c2.7,0,4.9-2.3,4.9-5c0-2.8-2.2-5-4.9-5c-1.6,0-2.9,0.8-3.8,1.9h-7.6V0h-6.6v18.1h-7.7
	h-6.7V5h-6.6v33.6h6.6C99.8,38.6,99.8,24.3,99.8,24.3z M136.8,9.8h10.9v27.5h6.6V9.8h10.9V3.7h-28.4V9.8z M174,1.7
	c-2.3,0-4.2,1.8-4.2,4.1s1.8,4.1,4.2,4.1c2.3,0,4.2-1.7,4.2-4.1C178.1,3.5,176.2,1.7,174,1.7z M170.8,13h6.2v24.3h-6.2V13z
	 M202.2,25.3l-0.7,2l-0.8-2l-9.6-21.6h-7.5v33.6h6.5V16l1,3l7.6,18.3h5.6l7.6-18.3l1-3v21.3h6.6V3.7h-7.6L202.2,25.3z M226.3,37.3
	h19.3v-6.2h-12.7v-8h11v-6.2h-11V9.8h12.7V3.7h-19.3V37.3z M262.8,17.3c-4.1-1.4-5.9-2.3-5.9-4.8c0-2.3,1.4-3.6,3.8-3.6
	c2.3,0,4,1.5,4.1,4.2h6.7c-0.3-6.7-4.3-10-10.6-10c-6.6,0-10.6,4.2-10.6,10c0,5.6,3.6,8.3,9.6,10.3c4.2,1.4,5.9,2.7,5.9,4.9
	s-1.6,3.8-4.4,3.8c-3.4,0-5.1-1.8-5.3-5.1h-6.7c0.2,6.4,4.2,10.9,11.8,10.9c6.3,0,11.2-3.7,11.2-10.2
	C272.5,22.7,270,19.7,262.8,17.3L262.8,17.3z"/>
</svg>
