<?xml version="1.0" encoding="utf-8"?>
<!-- Generator: Adobe Illustrator 25.4.1, SVG Export Plug-In . SVG Version: 6.00 Build 0)  -->
<svg version="1.1" id="Calque_1" xmlns="http://www.w3.org/2000/svg" xmlns:xlink="http://www.w3.org/1999/xlink" x="0px" y="0px"
	 viewBox="0 0 4437.4 941.9" style="enable-background:new 0 0 4437.4 941.9;" xml:space="preserve">
<style type="text/css">
	.st0{fill:#FFFFFF;}
</style>
<g>
	<g>
		<path class="st0" d="M437.3,173.9h-18.3C391.1,55,361,29.3,283.2,29.3h-9.5v471h66.8v21.3H97.6v-21.3h66.8v-471h-10.3
			c-77.8,0-108.6,28.6-135,144.5H0L7.3,8.1H430L437.3,173.9z"/>
		<path class="st0" d="M689,8.1v21.3h-50.6v217.2h187.1V29.3h-50.6V8.1h211.3v21.3h-50.6v471h50.6v21.3H774.8v-21.3h50.6V272.9
			H638.3v227.4H689v21.3H477.6v-21.3h50.6v-471h-50.6V8.1H689z"/>
		<path class="st0" d="M1406.5,8.1l7.3,141.6H1397c-25.7-100.5-66.8-120.3-156.3-120.3h-48.4v219.4h31.5c52.8,0,74.8-28.6,86.6-93.9
			h16.1V372h-17.6c-14.7-76.3-34.5-99.8-92.4-99.8h-24.2v228.2h52.1c99.8,0,149.7-45.5,168.8-135h15.4l-5.1,156.3h-391.8v-21.3h50.6
			v-471h-50.6V8.1H1406.5z"/>
		<path class="st0" d="M1757.2,263.4c0,159.2,45.5,242.9,138.7,242.9c69.7,0,118.9-51.4,148.9-145.3h15.4l-5.1,159.9h-11
			c-3.7-9.5-8.1-14.7-18.3-14.7c-23.5,0-69.7,22.7-141.6,22.7c-149.7,0-243.6-80-243.6-261.2C1640.5,92.4,1744,0,1886.3,0
			c67.5,0,109.3,22.7,133.5,22.7c11,0,13.9-5.1,17.6-14.7h11l5.9,155.5h-16.1c-28.6-91-74.1-140.9-146-140.9
			C1804.9,22.7,1757.2,85.8,1757.2,263.4z"/>
		<path class="st0" d="M2285.5,267.8v232.6h62.4v21.3h-227.4v-21.3h55v-471h-55V8.1h198.1c132.8,0,215,16.1,215,122.5
			c0,88.8-52.8,117.4-135,124v2.2c84.4,10.3,118.1,40.4,118.1,125.5v49.9c0,37.4,2.2,55.8,26.4,55.8c19.8,0,24.9-13.9,35.2-66
			l16.9,3.7c-9.5,61.6-20.5,103.5-91.7,103.5c-78.5,0-101.3-30.1-101.3-111.5v-75.6c0-47.7-18.3-74.1-72.6-74.1H2285.5z
			 M2285.5,246.5h19.8c75.6,0,110.1-30.8,110.1-115.9c0-85.1-36-101.3-107.9-101.3h-22V246.5z"/>
		<path class="st0" d="M2933.3,29.3h-70.4V8.1h148.2v21.3h-50.6l-121.1,245.1v226h53.6v21.3h-217.2v-21.3h53.6V281.7L2601,29.3h-44
			V8.1H2777v21.3h-56.5l104.2,220.8L2933.3,29.3z"/>
		<path class="st0" d="M3232.7,8.1c129.9,0,216.4,30.8,216.4,144.5c0,126.2-100.5,158.5-235.5,158.5h-16.9v189.3h91.7v21.3h-256.8
			v-21.3h55v-471h-55V8.1H3232.7z M3196.7,289.8h26.4c79.2,0,107.9-40.4,107.9-135.7c0-96.8-29.3-124.7-103.5-124.7h-30.8V289.8z"/>
		<path class="st0" d="M3925.3,173.9h-18.3C3879.1,55,3849,29.3,3771.2,29.3h-9.5v471h66.8v21.3h-242.9v-21.3h66.8v-471h-10.3
			c-77.8,0-108.6,28.6-135,144.5H3488l7.3-165.8h422.6L3925.3,173.9z"/>
		<path class="st0" d="M4204.8,0c148.9,0,232.6,96.8,232.6,261.9c0,165.1-79.2,267.1-239.9,267.1c-156.3,0-236.3-94.6-236.3-259
			C3961.2,104.2,4052.9,0,4204.8,0z M4201.2,22.7c-107.1,0-122.5,86.6-122.5,246.5c0,144.5,17.6,237,121.8,237
			c99.8,0,118.9-83.6,118.9-242.1C4319.3,107.1,4304.6,22.7,4201.2,22.7z"/>
	</g>
	<g>
		<path class="st0" d="M715.1,756.6c43.3,0,71.5,10.2,71.5,43.6c0,23.8-13.8,37.6-39.4,42v0.5c29.8,4.2,48.6,20.1,48.6,44.9
			c0,41.5-34.7,51.7-82,51.7h-58.5v-7.6h22.2V764.1h-22.2v-7.6H715.1z M704.9,841.1h6.8c35,0,46.7-12,46.7-40.2
			c0-27.9-12-36.8-45.2-36.8h-8.4V841.1z M704.9,931.7h12.3c36.6,0,48.3-10.4,48.3-42.8c0-29-12-41-46.7-41h-13.8V931.7z"/>
	</g>
	<g>
		<path class="st0" d="M1517,878.5h-59.3l-19.3,53.3h23.8v7.6h-52.5v-7.6h18.3l66.3-178.1h7l64,178.1h18v7.6h-71v-7.6h23L1517,878.5
			z M1460.3,870.9h54l-26.1-78.3L1460.3,870.9z"/>
	</g>
	<g>
		<path class="st0" d="M2312.4,895.7c0-25.8-19.6-30.3-53-38.9c-30.5-7.8-48.3-16.7-48.3-49.9c0-26.4,17.8-53.3,54.3-53.3
			c20.4,0,32.6,8.1,40.7,8.1c3.9,0,5-1.8,6.8-5.2h3.9l1.8,52.7h-5.7c-7.8-32.6-18.5-48.3-48.3-48.3c-24.3,0-37.3,13.3-37.3,33.4
			c0,20.9,19.6,27.7,42.8,33.9c28.5,7.6,57.2,15.4,57.2,55.1c0,33.4-21.1,58.5-59.8,58.5c-24.3,0-37.9-7.8-46-7.8
			c-3.9,0-4.7,2.9-6.8,7.8h-4.4l-2.6-59.5h5.7c7.8,32.9,20.9,52.2,53.3,52.2C2294.3,934.6,2312.4,918.7,2312.4,895.7z"/>
	</g>
	<g>
		<path class="st0" d="M3071.7,756.6v7.6h-19.6v167.6h19.6v7.6h-66.6v-7.6h19.6V764.1h-19.6v-7.6H3071.7z"/>
	</g>
	<g>
		<path class="st0" d="M3766.3,847.4c0,54.6,18.8,87.2,56.4,87.2c28.7,0,46.2-18.3,54-51.2h5.7l-1.8,55.6h-3.9
			c-1.8-3.4-2.9-5.2-6.8-5.2c-8.1,0-26.6,8.1-49.3,8.1c-50.9,0-84.3-27.7-84.3-94.3c0-61.9,37.3-94,85.4-94c20.4,0,37.9,8.1,46,8.1
			c3.9,0,5-1.8,6.8-5.2h3.9l1.8,54h-5.7c-7.8-32.9-24-49.6-52.7-49.6C3786.4,761,3766.3,787.1,3766.3,847.4z"/>
	</g>
</g>
</svg>
