<svg xmlns="http://www.w3.org/2000/svg" viewBox="0 0 512 512" xmlns:v="https://vecta.io/nano"><circle cx="256" cy="256" fill="#f0f0f0" r="256"/><path d="M52.92 100.142c-20.109 26.163-35.272 56.318-44.101 89.077h133.178zm450.261 89.077c-8.829-32.758-23.993-62.913-44.101-89.076l-89.075 89.076zM8.819 322.784c8.83 32.758 23.993 62.913 44.101 89.075l89.074-89.075zM411.858 52.921c-26.163-20.109-56.317-35.272-89.076-44.102v133.177zM100.142 459.079c26.163 20.109 56.318 35.272 89.076 44.102V370.005zm89.075-450.26c-32.758 8.83-62.913 23.993-89.075 44.101l89.075 89.075zm133.566 494.362c32.758-8.83 62.913-23.993 89.075-44.101l-89.075-89.075zm47.222-180.397l89.075 89.076c20.108-26.162 35.272-56.318 44.101-89.076z" fill="#0052b4"/><path d="M509.833 222.609h-220.44-.001V2.167C278.461.744 267.317 0 256 0a258.53 258.53 0 0 0-33.391 2.167v220.44.001H2.167C.744 233.539 0 244.683 0 256a258.53 258.53 0 0 0 2.167 33.391h220.44.001v220.442C233.539 511.256 244.681 512 256 512a258.35 258.35 0 0 0 33.391-2.167v-220.44-.001h220.442C511.256 278.461 512 267.319 512 256a258.53 258.53 0 0 0-2.167-33.391zm-187.05 100.175L437.019 437.02c5.254-5.252 10.266-10.743 15.048-16.435l-97.802-97.802h-31.482zm-133.566 0h-.002L74.98 437.019c5.252 5.254 10.743 10.266 16.435 15.048l97.802-97.804zm0-133.565v-.002L74.981 74.98c-5.254 5.252-10.266 10.743-15.048 16.435l97.803 97.803h31.481zm133.566 0L437.02 74.981c-5.252-5.254-10.743-10.266-16.435-15.047l-97.802 97.803z" fill="#d80027"/></svg>