<svg xmlns="http://www.w3.org/2000/svg" width="99" height="45" fill="#fff" xmlns:v="https://vecta.io/nano"><path d="M29.391 0L17.789 28.707h6.961l2.32-5.431h13.922v5.431h6.188V0H29.391zm0 17.069l4.254-10.862h7.348v10.862H29.391zM23.977 0L12.375 28.707h-3.48L20.496 0h3.481zm-7.348 0L5.027 28.707H0L11.602 0h5.027zm60.715 0L65.742 28.707H50.273V0h6.188v22.5h5.027L70.383 0h6.961zM99 0v9.31h-6.187V6.207h-7.734L78.891 22.5h14.231v-3.879h-6.497l2.707-6.207H99v16.293H69.609L81.211 0H99zM2.073 39.602h.688l1.792 4.625h-.766L3.3 42.97H1.521l-.481 1.257H.268l1.805-4.625zm1.084 2.827l-.74-2.026-.766 2.026h1.507zm3.927 1.83c-.364 0-.673-.063-.929-.189a1.63 1.63 0 0 1-.617-.515 2.23 2.23 0 0 1-.338-.743 3.57 3.57 0 0 1-.104-.866v-2.345h.727v2.345c0 .213.022.419.065.619s.113.371.208.528a1.05 1.05 0 0 0 .383.371 1.23 1.23 0 0 0 .604.137 1.21 1.21 0 0 0 .604-.137c.16-.091.294-.221.39-.378s.162-.339.201-.534a3.08 3.08 0 0 0 .065-.606v-2.345h.734v2.345c0 .317-.039.614-.117.892s-.19.523-.351.736-.362.38-.617.502-.554.182-.909.182zm6.571-4.012h-1.533v3.98h-.734v-3.98H9.85v-.645h3.805v.645zm2.641 4.012a2.06 2.06 0 0 1-.903-.196c-.273-.131-.5-.306-.695-.528a2.59 2.59 0 0 1-.455-.756 2.49 2.49 0 0 1-.156-.866 2.32 2.32 0 0 1 .169-.88c.113-.282.268-.532.468-.749a2.26 2.26 0 0 1 .701-.521 2.07 2.07 0 0 1 .883-.195 1.97 1.97 0 0 1 .896.202 2.14 2.14 0 0 1 .695.541 2.56 2.56 0 0 1 .448.756 2.33 2.33 0 0 1 .162.853 2.37 2.37 0 0 1-.169.886 2.43 2.43 0 0 1-.461.749c-.199.217-.435.389-.708.515s-.561.189-.877.189zm-1.468-2.345a1.94 1.94 0 0 0 .182.827 1.63 1.63 0 0 0 .506.625 1.29 1.29 0 0 0 .786.234c.229 0 .435-.048.617-.143a1.41 1.41 0 0 0 .461-.384c.125-.165.221-.347.286-.547a1.97 1.97 0 0 0 .097-.612 1.9 1.9 0 0 0-.182-.821 1.51 1.51 0 0 0-.507-.619c-.221-.161-.478-.241-.773-.241a1.32 1.32 0 0 0-.623.143 1.41 1.41 0 0 0-.461.384c-.126.161-.223.341-.292.541s-.097.404-.097.612zm8.54 2.313v-3.296l-1.357 2.502h-.429l-1.364-2.501v3.296h-.727v-4.625h.779l1.526 2.827 1.526-2.827h.779v4.625h-.734zm3.332-4.625h.689l1.792 4.625h-.766l-.487-1.257h-1.779l-.48 1.257h-.773l1.805-4.625zm1.085 2.827l-.74-2.026-.766 2.026h1.507zm5.139-2.182h-1.533v3.98h-.734v-3.98h-1.539v-.645h3.805v.645zm.846 3.98v-4.625h.727v4.625h-.727zm1.704-2.345a2.42 2.42 0 0 1 .149-.834c.1-.274.245-.521.435-.743s.429-.397.701-.528.593-.202.948-.202c.416 0 .775.093 1.078.28a1.76 1.76 0 0 1 .675.73l-.572.384c-.087-.187-.197-.332-.331-.436a1.14 1.14 0 0 0-.429-.228c-.151-.048-.301-.072-.448-.072-.242 0-.455.05-.636.15a1.41 1.41 0 0 0-.461.384 1.83 1.83 0 0 0-.279.541 2.06 2.06 0 0 0-.091.599 1.91 1.91 0 0 0 .188.84 1.72 1.72 0 0 0 .526.625 1.32 1.32 0 0 0 .773.235 1.49 1.49 0 0 0 .461-.078 1.37 1.37 0 0 0 .441-.241c.134-.113.242-.261.325-.443l.604.345a1.44 1.44 0 0 1-.448.586 2.12 2.12 0 0 1-.675.365 2.3 2.3 0 0 1-.734.124c-.325 0-.621-.067-.89-.202a2.31 2.31 0 0 1-.695-.547 2.65 2.65 0 0 1-.455-.769 2.44 2.44 0 0 1-.162-.866zm6.861-2.28l1.39 3.733 1.383-3.733h.773l-1.812 4.625h-.688l-1.818-4.625h.773zm7.499 3.98v.645h-3.163v-4.625h3.104v.645h-2.377v1.316h2.059v.606h-2.059v1.414h2.435zm1.705-2.625v3.27h-.727v-4.625h.597l2.611 3.342v-3.335h.734v4.619h-.636l-2.578-3.27zm7.862-.71h-1.533v3.98h-.734v-3.98h-1.539v-.645H59.4v.645zm2.768 4.012c-.364 0-.673-.063-.929-.189a1.63 1.63 0 0 1-.617-.515 2.23 2.23 0 0 1-.338-.743 3.57 3.57 0 0 1-.104-.866v-2.345h.727v2.345c0 .213.022.419.065.619a1.72 1.72 0 0 0 .208.528 1.05 1.05 0 0 0 .383.371 1.23 1.23 0 0 0 .604.137 1.21 1.21 0 0 0 .604-.137c.16-.091.294-.221.39-.378s.162-.339.201-.534a3.08 3.08 0 0 0 .065-.606v-2.345h.734v2.345c0 .317-.039.614-.117.892a2.19 2.19 0 0 1-.351.736 1.63 1.63 0 0 1-.617.502c-.256.122-.554.182-.909.182zm3.188-.032v-4.625h2.007a1.26 1.26 0 0 1 .572.13 1.46 1.46 0 0 1 .448.345c.13.143.229.304.299.482a1.42 1.42 0 0 1 .11.547c0 .209-.039.406-.117.593s-.178.341-.312.476a1.19 1.19 0 0 1-.474.293l1.085 1.759h-.818l-1-1.609h-1.072v1.609h-.727zm.727-2.254h1.273a.58.58 0 0 0 .357-.117.87.87 0 0 0 .247-.319 1 1 0 0 0 .091-.43.88.88 0 0 0-.104-.43.87.87 0 0 0-.273-.313.62.62 0 0 0-.357-.117h-1.234v1.726zm6.956 1.609v.645h-3.163v-4.625h3.104v.645h-2.377v1.316h2.059v.606h-2.059v1.414h2.435zm4.693.677a1.96 1.96 0 0 1-.857-.189 2.22 2.22 0 0 1-.688-.521c-.195-.221-.349-.473-.461-.756a2.49 2.49 0 0 1-.162-.899 2.42 2.42 0 0 1 .162-.886c.108-.282.262-.53.461-.743a2.16 2.16 0 0 1 .695-.508 2.04 2.04 0 0 1 .877-.189c.437 0 .805.093 1.104.28a1.84 1.84 0 0 1 .682.73l-.559.404c-.125-.252-.299-.441-.519-.567a1.44 1.44 0 0 0-.728-.189 1.24 1.24 0 0 0-.76.241 1.53 1.53 0 0 0-.5.619 1.97 1.97 0 0 0-.175.827 1.86 1.86 0 0 0 .195.853c.13.252.305.454.526.606s.48.228.766.228c.477 0 .905-.228 1.286-.684v-.489h-.968v-.541h1.578v2.339h-.61v-.573c-.385.404-.834.606-1.344.606zm3.012-.032v-4.625h2.006a1.26 1.26 0 0 1 .572.13 1.45 1.45 0 0 1 .448.345c.125.143.23.304.299.482a1.42 1.42 0 0 1 .11.547 1.52 1.52 0 0 1-.117.593 1.41 1.41 0 0 1-.312.476 1.19 1.19 0 0 1-.474.293l1.085 1.759h-.818l-1-1.609h-1.072v1.609h-.727zm.727-2.254h1.273a.58.58 0 0 0 .357-.117c.104-.082.186-.189.247-.319a1.01 1.01 0 0 0 .091-.43.88.88 0 0 0-.104-.43.87.87 0 0 0-.273-.313c-.112-.078-.231-.117-.357-.117h-1.234v1.726zm5.696 2.286a2.06 2.06 0 0 1-.903-.196c-.273-.131-.5-.306-.695-.528a2.55 2.55 0 0 1-.455-.756 2.36 2.36 0 0 1-.156-.866c0-.308.056-.602.169-.88s.268-.532.467-.749a2.18 2.18 0 0 1 .701-.521c.273-.13.567-.195.883-.195a1.97 1.97 0 0 1 .897.202c.269.135.504.315.694.541a2.58 2.58 0 0 1 .448.756 2.33 2.33 0 0 1 .162.853 2.36 2.36 0 0 1-.169.886 2.42 2.42 0 0 1-.461.749c-.199.221-.435.389-.708.515s-.561.189-.877.189zm-1.467-2.345c0 .291.06.567.182.827a1.63 1.63 0 0 0 .507.625c.221.156.483.234.786.234.229 0 .435-.048.616-.143a1.41 1.41 0 0 0 .461-.384 1.82 1.82 0 0 0 .286-.547 1.97 1.97 0 0 0 .097-.612 1.9 1.9 0 0 0-.182-.821 1.51 1.51 0 0 0-.507-.619 1.28 1.28 0 0 0-.773-.241c-.234 0-.442.048-.623.143a1.41 1.41 0 0 0-.462.384 1.87 1.87 0 0 0-.292.541 1.97 1.97 0 0 0-.097.612zm6.584 2.345c-.364 0-.673-.063-.929-.189a1.63 1.63 0 0 1-.617-.515 2.23 2.23 0 0 1-.338-.743c-.069-.278-.104-.567-.104-.866v-2.345h.727v2.345c0 .213.022.419.065.619s.113.371.208.528a1.05 1.05 0 0 0 .383.371c.165.091.366.137.604.137s.444-.046.604-.137a1.08 1.08 0 0 0 .39-.378c.095-.161.163-.339.201-.534a3.16 3.16 0 0 0 .065-.606v-2.345h.734v2.345c0 .317-.039.614-.117.892a2.19 2.19 0 0 1-.351.736 1.6 1.6 0 0 1-.617.502c-.251.122-.554.182-.909.182zm3.188-.032v-4.625h1.935a1.26 1.26 0 0 1 .572.13 1.43 1.43 0 0 1 .455.345 1.54 1.54 0 0 1 .299.482 1.49 1.49 0 0 1 .104.547 1.6 1.6 0 0 1-.176.736c-.117.23-.279.417-.487.56a1.25 1.25 0 0 1-.727.215h-1.247v1.609h-.728zm.728-2.254h1.201a.61.61 0 0 0 .5-.248c.13-.165.195-.371.195-.619a.9.9 0 0 0-.104-.443.81.81 0 0 0-.272-.306.62.62 0 0 0-.357-.111h-1.162v1.726z"/></svg>