<svg xmlns="http://www.w3.org/2000/svg" xmlns:xlink="http://www.w3.org/1999/xlink" width="389" height="85" fill="none" xmlns:v="https://vecta.io/nano"><path d="M128.426 12.403c-.765 1.287-2.588 3.861-3.762 3.861-1.468 0-3.395-.919-4.863-3.217-1.174-1.838-4.649-1.685-6.239-1.379-1.835-2.084-6.019-6.508-8.074-7.538-2.569-1.287-6.79-3.769-11.561-3.861s-6.331 1.011-8.992 0-6.331 1.103-7.34 1.838-6.973 2.574-9.267 2.758-6.239 3.585-6.79 4.78-2.477 4.504-3.395 5.24-7.34 9.836-10.827 10.112-8.533 2.022-10.827 0-3.028-2.85-6.331-2.298-8.716-3.953-8.625-7.814 1.927-6.894 3.67-7.63c1.957.613 6.184 1.397 7.432-.368s.887-4.29.55-5.332c-.336 1.256-1.376 3.493-2.844 2.39-1.835-1.379-4.932-.735-5.964 2.114-1.132 1.072-3.523 3.861-4.037 6.435-.642 3.217.184 6.986 3.028 9.744s8.625 3.217 8.716 5.607-.183 3.585-1.743 5.424-3.67 2.574-3.395 6.894c.196 3.083.907 7.335 1.231 10.02-1.022.981-3.304 2.978-4.259 3.125-1.193.184-3.578.368-4.404 1.655s-1.743 4.228-3.487 5.699-7.34 5.148-8.625 5.516-2.386 1.471-2.661 2.574-1.927 2.39-2.477 2.574S.432 75.188.34 76.383s.275 2.942 1.101 3.034 2.11-.092 2.936-.552a13.51 13.51 0 0 0 1.533-1.011c-.062 1.063-.035 4.463.21 4.872.275.46.275 1.011.918.643s.826.368.826.644.183.552.826.276 3.395-2.942 3.762-3.677.184-1.838.275-2.206 1.009-1.379 1.284-1.379 1.101-.092 1.376-1.195.826-3.126 1.743-4.32 4.679-4.964 6.79-5.332 2.386-.735 3.762-2.206 2.569-1.747 3.762-1.839 2.294.276 3.945-.368 4.129-.46 4.588-.46 1.835.552 3.028-.919 3.578-3.217 4.037-3.585.917-.919 1.285-2.39c1.04.061 3.578.018 5.413-.643 2.294-.827 5.872-2.114 8.808-1.839s7.707 1.195 9.175.735c1.174-.368 3.12-.889 3.945-1.103 0 .889.202 2.978 1.009 4.229 1.009 1.563 1.651 3.033 1.284 4.137s-1.651 1.839-1.743 2.114 2.019.184 2.11.092-.642 1.011-1.651 1.195c-.807.147-1.743.061-2.11 0-.55 1.011-1.67 3.144-1.743 3.585s-.031 2.635 0 3.677h2.202l2.936-2.574c.367-.368 5.046-5.332 5.138-5.883s.459-2.114-.184-2.85-1.743-2.942-1.743-4.872v-3.861c.214-.337.624-1.122.551-1.563.673-.674 2.055-2.133 2.202-2.574s.55-1.348.734-1.746c.275.582.881 1.71 1.101 1.563.275-.184 2.202-3.585 2.661-4.321s1.468-1.011 2.294-.46 3.211 4.137 3.578 4.78a3.11 3.11 0 0 1 .367 1.379c.183.368-1.285 1.379-1.009 1.563.22.147.765.184 1.009.184.183.919-.55 1.471-1.009 1.839s-1.651.184-2.385.643-1.376 2.39-1.376 3.217-.367 4.872 0 4.872 1.743-.643 2.661-1.287c.734-.515 1.59-1.747 1.927-2.298 0 .49.073 1.36.367.919.367-.551.826-1.471 1.927-1.747s2.661-2.298 3.028-3.309-.918-3.585-1.468-4.596.184-4.412 0-5.332-.275-3.033-.734-5.24-1.927-1.195-2.753-1.563c-.661-.294-1.572-.123-1.945 0 1.053-1.085 1.981-1.855 2.312-2.85.367-1.103 1.927-3.585 2.844-4.32.734-.588 2.141-1.103 2.752-1.287.612.429 1.854 1.416 1.927 1.931.092.643 2.478 4.412 2.202 6.527s4.68 4.504 6.148 3.034 3.119-.46 3.303-4.045 1.56-2.666 2.11-5.516c-.092-.613-.018-2.261 1.009-3.953s.612-3.401.276-4.045c.55.551 1.945 1.563 3.119 1.195 1.468-.46 2.661-1.195 2.936-2.206-.703.153-2.275.368-2.936 0s-1.682-.705-2.11-.827c-.337-.613-1.175-1.838-1.835-1.838-.214-.184-.606-.643-.459-1.011.184-.46 1.652.735 4.221 1.471s4.771.552 6.055-.735 1.652-3.524 1.652-4.596z" fill="#1b837c"/><path d="M32.396 62.131l5.183-14.678c.17-.483.823-.555 1.096-.121.262.417.884.37 1.08-.082l3.974-9.17c.199-.46.833-.508 1.099-.083.273.435.925.372 1.109-.108l1.184-3.086c.689-1.794 3.155-1.979 4.102-.306l3.178 5.609c1.436 2.534 5.149 2.341 6.314-.329l1.686-3.864c.296-.678 1.207-.8 1.67-.223.47.585 1.395.45 1.679-.244l3.55-8.696a2.25 2.25 0 0 1 4.139-.045 2.25 2.25 0 0 0 4.103.038l2.253-4.939c.361-.791 1.446-.889 1.942-.174.512.737 1.639.604 1.966-.232l4.747-12.138c.903-2.309 4.074-2.553 5.319-.409l1.358 2.337c.549.945 1.916.936 2.453-.015.513-.909 1.802-.967 2.395-.108l.087.126a1.51 1.51 0 0 0 2.6-.199l3.219-6.639c2.158 1.333 5.955 5.357 7.679 7.315 1.591-.306 5.065-.46 6.239 1.379 1.468 2.298 3.395 3.217 4.863 3.217 1.175 0 2.997-2.574 3.762-3.861 0 1.072-.367 3.309-1.651 4.596s-3.487 1.471-6.056.735c-1.237-.354-2.218-.814-2.924-1.145-.761-.357-1.202-.564-1.297-.325-.147.368.245.827.459 1.011.661 0 1.499 1.226 1.835 1.839.428.123 1.45.46 2.11.827s2.233.153 2.936 0c-.275 1.011-1.468 1.747-2.936 2.206-1.174.368-2.569-.644-3.119-1.195.336.643.752 2.353-.275 4.045s-1.101 3.34-1.01 3.953c-.244 1.267-.652 1.789-1.046 2.293-.492.63-.962 1.231-1.064 3.223-.123 2.406-.908 2.742-1.854 3.147-.464.199-.966.414-1.449.898-1.468 1.471-6.423-.919-6.147-3.033.194-1.497-.944-3.822-1.658-5.282-.295-.602-.518-1.057-.545-1.245-.073-.515-1.315-1.501-1.926-1.93-.612.184-2.019.699-2.753 1.287-.918.735-2.477 3.217-2.844 4.32-.269.808-.931 1.468-1.735 2.268l-.577.581c.373-.123 1.284-.294 1.945 0 .246.11.55.097.867.083.745-.032 1.563-.068 1.885 1.48.284 1.364.427 2.692.538 3.725.069.638.126 1.164.196 1.515.072.361.003 1.104-.075 1.935-.12 1.286-.26 2.782.075 3.396.55 1.011 1.835 3.585 1.468 4.596s-1.927 3.034-3.028 3.309c-.97.243-1.442.986-1.791 1.536l-.136.21c-.294.441-.367-.429-.367-.919-.337.552-1.193 1.783-1.927 2.298-.918.644-2.294 1.287-2.661 1.287-.27 0-.143-2.182-.057-3.669l.057-1.203c0-.827.642-2.758 1.376-3.217.382-.239.889-.304 1.352-.363.425-.054.814-.104 1.033-.28l.044-.036c.46-.367 1.142-.913.965-1.803-.245 0-.789-.037-1.009-.184-.132-.088.136-.365.43-.671.321-.333.675-.7.579-.892a3.11 3.11 0 0 0-.367-1.379c-.367-.644-2.753-4.229-3.578-4.78s-1.835-.276-2.294.46c-.132.212-.387.646-.688 1.16-.744 1.269-1.777 3.03-1.973 3.16-.22.147-.826-.981-1.101-1.563-.184.398-.587 1.305-.734 1.747s-1.529 1.9-2.202 2.574c.073.441-.336 1.226-.55 1.563v3.861c0 1.93 1.101 4.137 1.743 4.872.581.665.336 2.006.216 2.665l-.033.185c-.092.552-4.771 5.515-5.138 5.883-.294.294-2.08 1.839-2.936 2.574h-2.202c-.031-1.042-.073-3.236 0-3.677s1.193-2.574 1.743-3.585c.367.061 1.303.147 2.11 0 1.009-.184 1.743-1.287 1.652-1.195s-2.202.184-2.11-.092c.031-.092.194-.235.411-.426.435-.381 1.087-.953 1.332-1.689.367-1.103-.275-2.574-1.285-4.137-.807-1.25-1.009-3.34-1.009-4.229-.826.215-2.771.735-3.945 1.103-1.031.323-3.689-.034-6.197-.371l-2.978-.364c-2.936-.276-6.514 1.011-8.808 1.838-1.835.662-4.373.705-5.413.644-.367 1.471-.826 2.022-1.285 2.39l-.297.23c-.805.62-2.714 2.089-3.741 3.355-.989 1.22-2.104 1.049-2.718.955a2.32 2.32 0 0 0-.31-.035 9.68 9.68 0 0 1-.27-.007c-.81-.027-2.878-.094-4.318.467-1.141.444-2.019.407-2.846.371l-.148-.006z" fill="url(#A)" fill-opacity=".62"/><path d="M106.739 4.952l-3.146 6.488c-.848 1.749-3.276 1.934-4.381.333l-.087-.125a.38.38 0 0 0-.643.029c-.928 1.644-3.299 1.659-4.248.026l-1.358-2.337c-.809-1.392-2.875-1.234-3.462.265l-4.748 12.142a2.16 2.16 0 0 1-3.778.442c-.014-.021-.026-.027-.034-.031s-.027-.008-.046-.007-.035.008-.044.015-.017.013-.028.036l-2.254 4.94c-1.176 2.578-4.864 2.544-5.992-.055-.426-.982-1.829-.967-2.234.024l-3.551 8.698c-.57 1.396-2.413 1.686-3.39.561l-1.654 3.791c-1.503 3.444-6.31 3.693-8.163.422l-3.176-5.605c-.516-.911-1.864-.811-2.239.166l-1.184 3.087c-.399 1.04-1.633 1.342-2.466.787l-3.734 8.615c-.418.964-1.562 1.242-2.367.752l-4.853 13.743c-.327.01-.636-.003-.939-.016l-1.1-.003-.149.013 5.31-15.036c.372-1.055 1.607-1.379 2.447-.835l3.729-8.605c.427-.984 1.605-1.257 2.417-.736l.959-2.5c.999-2.605 4.592-2.871 5.968-.443l3.175 5.605c1.014 1.79 3.646 1.654 4.469-.231l1.686-3.865c.594-1.362 2.406-1.626 3.37-.518l3.52-8.621c1.095-2.682 4.891-2.723 6.044-.066.417.961 1.78.973 2.215.02l2.254-4.94a2.16 2.16 0 0 1 3.731-.334c.015.022.027.028.034.031s.027.008.048.006.036-.01.045-.017.016-.013.026-.038L87.49 8.883c1.215-3.107 5.498-3.435 7.175-.549l1.358 2.337a.38.38 0 0 0 .659-.004c.887-1.572 3.121-1.672 4.147-.186l.087.125c.206.299.659.265.818-.062l3.238-6.677.517.263c.36.18.785.465 1.251.822z" fill="#4effd4"/><g fill="#fff"><path d="M148.652 61.248V21h16.022c4.129 0 7.31.933 9.545 2.797 2.272 1.827 3.409 4.396 3.409 7.707 0 2.207-.568 4.091-1.705 5.652s-2.708 2.702-4.715 3.425c2.31.609 4.109 1.732 5.397 3.368 1.326 1.636 1.989 3.711 1.989 6.223 0 3.577-1.156 6.318-3.466 8.221s-5.568 2.854-9.772 2.854h-16.704zm4.545-22.265h10.795c6.023 0 9.034-2.36 9.034-7.079 0-4.757-3.011-7.136-9.034-7.136h-10.795v14.215zm0 18.497h11.704c6.06 0 9.091-2.455 9.091-7.364s-3.031-7.364-9.091-7.364h-11.704V57.48zm41.86 4.281c-6.628 0-9.942-3.673-9.942-11.018V33.502h4.602v17.184c0 2.474.492 4.301 1.477 5.48 1.023 1.18 2.613 1.77 4.772 1.77 2.349 0 4.261-.78 5.739-2.341 1.477-1.598 2.215-3.711 2.215-6.337V33.502h4.602v27.745h-4.488v-4.681c-.871 1.675-2.102 2.969-3.693 3.882-1.553.875-3.314 1.313-5.284 1.313z"/><use xlink:href="#B"/><use xlink:href="#B" x="15.675"/><path d="M249.298 61.486V21.239h15.851c4.318 0 7.613 1.047 9.886 3.14 2.31 2.093 3.466 5.081 3.466 8.963 0 3.844-1.156 6.832-3.466 8.963-2.273 2.093-5.568 3.14-9.886 3.14h-11.192v16.042h-4.659zm4.659-19.981h10.624c6.212 0 9.318-2.721 9.318-8.164 0-5.48-3.106-8.221-9.318-8.221h-10.624v16.385zM294.656 62c-4.356 0-7.803-1.275-10.34-3.825-2.538-2.588-3.807-6.09-3.807-10.504 0-2.854.568-5.366 1.705-7.536 1.136-2.207 2.689-3.901 4.658-5.081 2.008-1.218 4.318-1.827 6.932-1.827 3.749 0 6.685 1.218 8.806 3.654 2.121 2.398 3.182 5.709 3.182 9.934v1.77h-20.795c.152 3.159 1.061 5.576 2.728 7.25 1.666 1.637 3.977 2.455 6.931 2.455 1.666 0 3.257-.247 4.772-.742 1.515-.533 2.955-1.389 4.318-2.569l1.591 3.254c-1.25 1.18-2.841 2.112-4.772 2.797-1.932.647-3.902.971-5.909.971zm-.739-25.347c-2.613 0-4.677.818-6.192 2.455s-2.406 3.787-2.671 6.451h16.76c-.113-2.816-.852-5.005-2.215-6.565-1.326-1.56-3.22-2.341-5.682-2.341zm17.398 24.833V33.741h4.489v4.967c1.477-3.349 4.507-5.195 9.09-5.538l1.648-.171.341 3.996-2.898.343c-2.613.228-4.602 1.066-5.966 2.512-1.363 1.408-2.045 3.349-2.045 5.823v15.814h-4.659zm19.226 0V21.239h4.602v24.834h.114l12.783-12.331h5.852L340.029 47.1l15.056 14.386h-5.852L335.257 48.47h-.114v13.016h-4.602zM366.63 62c-2.159 0-4.204-.304-6.136-.913s-3.522-1.465-4.772-2.569l1.477-3.254a14.01 14.01 0 0 0 4.489 2.455c1.666.495 3.352.742 5.056.742 2.159 0 3.788-.4 4.886-1.199s1.648-1.884 1.648-3.254c0-1.066-.36-1.903-1.08-2.512-.719-.647-1.856-1.142-3.409-1.484l-5.17-1.142c-4.696-1.028-7.045-3.463-7.045-7.307 0-2.512.985-4.529 2.955-6.051 2.007-1.522 4.62-2.284 7.84-2.284 1.894 0 3.693.304 5.397.913 1.743.571 3.182 1.427 4.318 2.569l-1.534 3.254a11.09 11.09 0 0 0-3.863-2.341c-1.439-.571-2.879-.856-4.318-.856-2.121 0-3.731.419-4.829 1.256a3.96 3.96 0 0 0-1.648 3.311c0 2.131 1.402 3.501 4.204 4.11l5.17 1.085c2.425.533 4.262 1.389 5.511 2.569 1.25 1.142 1.875 2.702 1.875 4.681 0 2.55-1.003 4.567-3.011 6.051-2.007 1.446-4.678 2.169-8.011 2.169z"/></g><defs><linearGradient id="A" x1="88.621" y1="-9.581" x2="88.621" y2="78.939" gradientUnits="userSpaceOnUse"><stop stop-color="#4effea"/><stop offset="1" stop-color="#4efff4" stop-opacity="0"/></linearGradient><path id="B" d="M224.461 61.761c-2.803 0-4.924-.818-6.363-2.455-1.401-1.675-2.102-4.091-2.102-7.25V21h4.602v30.714c0 4.072 1.61 6.108 4.829 6.108.947 0 1.799-.114 2.557-.343l-.114 3.882c-1.174.266-2.31.4-3.409.4z"/></defs></svg>