<svg xmlns="http://www.w3.org/2000/svg" viewBox="0 0 321.3 68.9" xmlns:v="https://vecta.io/nano"><path d="M87.2 61.8V6.3H98v55.6l-10.8-.1h0zm78.8.8c-11.6 0-20-9.2-20-21.4 0-12.4 8.4-21.4 20-21.4 11 0 18.9 7.4 20.1 18.4h-11.3c-.5-5-3.6-8.8-8.7-8.8-5.4 0-9.1 4.6-9.1 11.8 0 7 3.7 11.9 9.1 11.9 5 0 8.2-4 8.7-8.9h11.3c-1.2 11-9.2 18.4-20.1 18.4zm35.1-20v19.2h-10.7V6.3h10.7V38l15.1-17.5h12.4l-17 19.8 19.1 21.5H217l-15.9-19.2zm33 19.2V6.3h10.8v55.6l-10.8-.1h0zm35.5.7c-12.3 0-20.7-8.5-20.7-21.5 0-12.3 8.6-21.3 20.5-21.3 13.1 0 21.7 10.6 19.8 24.1H260c.1 6.3 3.7 10.4 9.2 10.4 4.7 0 8-2.3 9.2-6.4H289c-2.3 9.3-9.5 14.7-19.4 14.7zM260 37h17.7c-.2-5.7-3.6-9.4-8.6-9.4s-8.6 3.9-9.1 9.4zm52.7 25.6c-8.5 0-13.9-4.9-13.9-14.2V29.7h-8.3v-9.2h8.3V8.3h10.7v12.2h11.8v9.2h-11.8V46c0 4.8 2.2 6.7 6.1 6.7 2 0 3.9-.5 5.4-1.3v9.4c-2.6 1.3-5.1 1.8-8.3 1.8zm-190.8 0c-12 0-21-9.4-21-21.4 0-12.1 9-21.4 21-21.4 11.9 0 21 9.4 21 21.4 0 11.9-9 21.4-21 21.4zm0-9.6c5.3 0 9.8-4.3 9.8-11.9s-4.5-11.8-9.8-11.8-9.9 4.2-9.9 11.8 4.5 11.9 9.9 11.9z" fill="#fff"/><linearGradient id="A" gradientUnits="userSpaceOnUse" x1="157.1" y1="41.25" x2="234.1" y2="41.25"><stop offset="0" stop-color="#9cf700"/><stop offset=".086" stop-color="#97f708"/><stop offset=".219" stop-color="#8af51e"/><stop offset=".383" stop-color="#75f342"/><stop offset=".573" stop-color="#57f174"/><stop offset=".783" stop-color="#31edb5"/><stop offset="1" stop-color="#05e9ff"/></linearGradient><path d="M218.4 38.2h0-34.8 0-8.7c-.5-5-3.6-8.8-8.7-8.8-5.4 0-9.1 4.6-9.1 11.8 0 7 3.7 11.9 9.1 11.9 5 0 8.2-4 8.7-8.9h59.2v-6h-15.7z" fill="url(#A)"/><linearGradient id="B" gradientUnits="userSpaceOnUse" x1="0" y1="34.4" x2="68.8" y2="34.4"><stop offset="0" stop-color="#9af803"/><stop offset="1" stop-color="#04eaf3"/></linearGradient><circle cx="34.4" cy="34.4" r="34.4" fill="url(#B)"/><path d="M58.2 37.2c-1.4 11.9-11.5 21.2-23.7 21.2-13.2 0-23.9-10.7-23.9-23.9s10.7-23.9 23.9-23.9c12.3 0 22.4 9.3 23.7 21.2H44.7c-1.2-4.5-5.3-7.9-10.2-7.9-5.8 0-10.6 4.7-10.6 10.6S28.7 45 34.5 45c4.9 0 9-3.3 10.2-7.9h13.5v.1z" fill-rule="evenodd" fill="#fff"/><circle cx="34.3" cy="34.4" r="3.4" fill="#1e1d18"/><linearGradient id="C" gradientUnits="userSpaceOnUse" x1="68.441" y1="37.005" x2="14.907" y2="30.99"><stop offset="0" stop-color="#73e7f1"/><stop offset="1" stop-color="#fff"/></linearGradient><path d="M21.2 54.3c-3.4-4.9-6.9-12.7-5.2-20.6 2.4-11.2 16.6-14.9 18.6-23.1h-.1c-13.2 0-23.9 10.7-23.9 23.9 0 8.2 4.2 15.5 10.6 19.8z" fill="url(#C)"/></svg>