<svg xmlns="http://www.w3.org/2000/svg" width="168" height="21" fill="none" xmlns:v="https://vecta.io/nano"><g clip-path="url(#B)"><path d="M32.668 14.379l-7.18-12.454c-1.574-2.596-5.412-2.623-6.931.11l-7.539 12.951c-1.408 2.375.331 5.357 3.148 5.357h15.105c2.844 0 4.971-3.065 3.397-5.965z" fill="#00b897"/><path d="M22.312 15.345l-.442-.773-1.325-2.264L14.47 1.759c-1.574-2.347-5.302-2.541-6.876.414L.525 14.406c-1.464 2.568.276 5.909 3.452 5.937h15.022 6.407 3.811c-3.894.028-5.136-1.988-6.904-4.998z" fill="#76fcb2"/><path d="M22.312 15.345l-.442-.773-1.325-2.264-3.921-6.904-5.633 9.61c-1.408 2.375.331 5.357 3.148 5.357h4.832 6.407 3.838c-3.921-.028-5.136-2.016-6.904-5.026z" fill="url(#A)"/><g fill="#00b897"><path d="M165.813 19.377c-1.022 0-1.823-.221-2.43-.607-.636-.414-.967-1.022-.967-1.85V4.879h1.602a1.08 1.08 0 0 1 1.077 1.077V16.56c0 .028 0 .525.414.939.248.248.552.387.966.387h.304c.111 0 .221.11.221.221v1.298l-1.187-.028zm-34.518-.001c-1.657 0-3.01-.442-4.032-1.326-.524-.442-.883-.939-1.104-1.491s-.332-1.353-.332-2.43c0-1.049.111-1.878.332-2.43.193-.525.552-.994 1.077-1.436 1.021-.884 2.374-1.325 4.031-1.325s3.01.442 4.032 1.325c.525.442.884.939 1.077 1.436.221.58.331 1.381.331 2.43 0 1.077-.11 1.878-.331 2.43s-.58 1.049-1.105 1.491c-.966.884-2.319 1.326-3.976 1.326zm0-8.919c-1.823 0-2.734 1.243-2.734 3.7 0 2.485.911 3.728 2.734 3.728s2.734-1.243 2.734-3.7c0-2.485-.939-3.728-2.734-3.728zm11.432 8.92c-1.436 0-2.761-.387-3.893-1.132-.111-.11-.332-.248-.608-.414-.055-.028-.11-.111-.11-.193V4.879h1.629a1.1 1.1 0 0 1 1.077 1.077v3.728l.497-.276c.58-.304 1.353-.442 2.347-.442 1.74 0 3.065.525 3.949 1.546.773.911 1.16 2.126 1.16 3.617s-.442 2.706-1.326 3.59c-1.022 1.105-2.623 1.657-4.722 1.657zm.276-8.919c-.607 0-1.298.221-2.071.69l-.11.055v5.992l.11.083c.608.387 1.326.58 2.071.58.994 0 1.768-.414 2.292-1.243.442-.663.691-1.519.691-2.485 0-2.43-1.022-3.673-2.983-3.673zm12.151 8.891c-3.038 0-4.943-1.988-4.943-5.219 0-3.203 1.877-5.191 4.887-5.191 1.16 0 2.154.304 2.955.884l.166.11v-.801h2.126c.138 0 .221.11.221.221v9.803h-2.375v-.884l-.166.138c-.662.607-1.712.939-2.871.939zm.552-8.643c-1.906 0-3.038 1.464-3.038 3.424s1.132 3.479 3.038 3.479c.607 0 1.657-.055 2.485-.884l.028-.028v-5.026l-.028-.028c-.58-.663-1.436-.939-2.485-.939z"/></g><g fill="#fff"><path d="M57.04 19.238V4.851h11.957v.911c0 .718-.58 1.298-1.298 1.298h-7.677v3.866H67.7v2.209h-7.677v3.866H67.7c.718 0 1.298.58 1.298 1.298v.911l-11.957.028zM86.173 4.851h-2.817a1.66 1.66 0 0 0-1.326.635l-3.397 4.28-3.397-4.253a1.66 1.66 0 0 0-1.325-.635h-2.817l5.716 7.18-5.716 7.18h2.817a1.66 1.66 0 0 0 1.325-.635l3.397-4.253 3.424 4.28c.331.387.801.635 1.325.635h2.817l-5.716-7.18 5.689-7.235zm-38.494 12.87l3.921-6.848v8.34h2.982V4.825h-1.85c-.58 0-1.132.304-1.408.828l-4.694 8.56-4.694-8.56a1.58 1.58 0 0 0-1.408-.828h-1.85v14.387h2.982v-8.34l3.921 6.848h2.099zm46.282 1.683c-4.142.055-7.511-3.203-7.539-7.345 0-2.264.69-4.142 1.988-5.44 1.298-1.27 3.176-1.961 5.412-1.961 2.623 0 4.694.911 6.185 2.679l-.939.801a1.66 1.66 0 0 1-2.071.055c-.828-.635-1.878-.939-3.065-.939-2.927 0-4.667 1.767-4.667 4.75 0 3.01 1.795 4.86 4.667 4.86 1.215 0 2.237-.331 3.065-.939.608-.469 1.464-.442 2.071.055l.939.801c-1.491 1.74-3.479 2.623-6.047 2.623z"/></g><g fill="#00b897"><path d="M112.324 19.404c-4.639 0-7.511-2.817-7.511-7.345s2.872-7.345 7.456-7.345c2.209 0 4.059.635 5.495 1.933l-.69.773c-.304.331-.746.525-1.188.525-.248 0-.497-.055-.718-.166-.856-.442-1.85-.663-2.899-.663-2.983 0-4.833 1.905-4.833 4.971 0 3.093 1.933 4.998 5.026 4.998 1.491 0 2.651-.276 3.507-.884l.055-.028v-2.955h-3.286v-.966c0-.718.58-1.298 1.298-1.298h4.059c.111 0 .221.11.221.221v6.379c-1.408 1.215-3.424 1.85-5.992 1.85zm11.322-.027c-1.022 0-1.823-.221-2.43-.607-.635-.414-.967-1.022-.967-1.85V4.879h1.602a1.08 1.08 0 0 1 1.077 1.077V16.56c0 .028 0 .525.414.939a1.29 1.29 0 0 0 .966.387h.304c.111 0 .221.11.221.221v1.298l-1.187-.028z"/></g></g><defs><linearGradient id="A" x1="8.986" y1="10.648" x2="26.437" y2="17.096" gradientUnits="userSpaceOnUse"><stop stop-color="#53e57a" stop-opacity="0"/><stop offset="1" stop-color="#00a977"/></linearGradient><clipPath id="B"><path fill="#fff" d="M0 0h168v21H0z"/></clipPath></defs></svg>