<svg xmlns="http://www.w3.org/2000/svg" viewBox="0 0 432.77 124.57" xmlns:v="https://vecta.io/nano"><path d="M53.94 96.05v28.52l-2.28-1.32-12.04-6.95V87.79l14.32 8.26zM24.69 45.4v62.28L0 93.42V31.14L24.69 45.4z" fill="#282bdb"/><path d="M107.88 31.14v62.28l-53.94 31.15V96.06l29.24-16.89V45.4l24.7-14.26z" fill="#3581e6"/><path d="M107.88 31.14L83.18 45.4 53.94 28.51 24.7 45.4 0 31.14 53.94 0l53.94 31.14z" fill="#3ec7eb"/><path d="M136.76 45.4h15.49c3.66 0 6.52.92 8.56 2.77a9.93 9.93 0 0 1 3.06 7.75 9.92 9.92 0 0 1-3.06 7.74c-2 1.85-4.9 2.77-8.56 2.77h-8V79.1h-7.46zm14.53 15.39q5.6 0 5.6-4.83a4.63 4.63 0 0 0-1.39-3.68 6.37 6.37 0 0 0-4.21-1.19h-7.07v9.7zM172.62 78a10.51 10.51 0 0 1-4.35-4.26 14.47 14.47 0 0 1 0-12.95 10.44 10.44 0 0 1 4.35-4.23 15.14 15.14 0 0 1 13.1 0 10.38 10.38 0 0 1 4.35 4.23 14.47 14.47 0 0 1 0 12.95 10.45 10.45 0 0 1-4.35 4.26 15 15 0 0 1-13.1 0zm11.81-10.73a7.89 7.89 0 0 0-1.36-5.07 4.73 4.73 0 0 0-3.9-1.67q-5.25 0-5.25 6.74 0 6.74 5.25 6.73 5.27 0 5.26-6.75zm12 11.83V45.4h7.22v33.7zm29.96-23.42h7.08l-14.15 32H212l4.5-9.9-9.66-22.13h7.51l5.92 14.91zm66.4 13.05H277.5a6 6 0 0 0 1.84 4.09 6.48 6.48 0 0 0 4.28 1.26 11.61 11.61 0 0 0 3.61-.59 11.83 11.83 0 0 0 3.27-1.7l1.91 4.83a13 13 0 0 1-4.18 2.1 16.59 16.59 0 0 1-5 .77q-5.92 0-9.35-3.28a11.8 11.8 0 0 1-3.41-8.92 13.2 13.2 0 0 1 1.53-6.35 10.86 10.86 0 0 1 4.11-4.33 11.5 11.5 0 0 1 6-1.56 10 10 0 0 1 7.81 3.21q2.89 3.2 2.89 8.7zM279 61.34a6.59 6.59 0 0 0-1.5 3.8h9.22a6.18 6.18 0 0 0-1.26-3.82 4 4 0 0 0-3.18-1.32 4.29 4.29 0 0 0-3.28 1.34zM313.23 74l-.38 5.26a19.85 19.85 0 0 1-2.77.2c-3.57 0-6.18-.79-7.82-2.35s-2.46-3.9-2.46-7.11v-9h-4.45v-5.4h4.45v-6.86h7.2v6.89h5.88V61H307v9q0 4.22 3.92 4.21a18.32 18.32 0 0 0 2.31-.21zm36.57-18.37h7l-9.49 23.47h-6.12L336 65.86l-5 13.24h-6.07l-9.56-23.47h7.36l5.55 14.87 5.54-14.87h4.88l5.59 15zM363.93 78a10.51 10.51 0 0 1-4.35-4.26 14.47 14.47 0 0 1 0-12.95 10.44 10.44 0 0 1 4.35-4.23 15.14 15.14 0 0 1 13.1 0 10.44 10.44 0 0 1 4.35 4.23 14.47 14.47 0 0 1 0 12.95A10.51 10.51 0 0 1 377 78a15 15 0 0 1-13.1 0zm11.81-10.73a7.89 7.89 0 0 0-1.37-5.07 4.7 4.7 0 0 0-3.89-1.67q-5.26 0-5.26 6.74 0 6.74 5.26 6.73c3.52 0 5.26-2.26 5.26-6.75zM404.47 61l-4.07.43a6.31 6.31 0 0 0-4.25 1.7 5.46 5.46 0 0 0-1.25 3.75V79.1h-7.22V55.63h6.94v4q1.75-4.07 7.31-4.45L404 55zm28.3 18.1h-8.84l-9-10.47V79.1h-7.22V45.4h7.22v20.27l8.65-10h8.61l-9.85 11.18zM258.91 45.4h7v33.7h-5.54l-16.8-21.46V79.1h-6.94V45.4h5.5l16.78 21.37z" fill="#fff"/></svg>