<svg xmlns="http://www.w3.org/2000/svg" width="50" height="49" fill="none" xmlns:v="https://vecta.io/nano"><path fill-rule="evenodd" d="M7.431 8.077l-6.91 8.741-.521.664L2.478 28.39l2.478 10.908 10.022 4.851L25 49l10.022-4.851 10.023-4.851 2.477-10.908L50 17.482l-.521-.664-6.91-8.741L36.18 0H25 13.82L7.431 8.077zm21.165-.504L25 11.959s-1.681-1.974-3.596-4.387l-3.481-4.387H25h7.077l-3.481 4.387zm-9.791 1.776l3.99 5.092c.135.217-.264.787-2.881 4.107l-3.316 3.807c-.33-.056-12.03-4.953-12.199-5.106-.064-.058 1.838-2.572 4.225-5.587 6.269-7.916 5.966-7.556 6.172-7.338.097.102 1.901 2.363 4.008 5.025zm22.082 1.7l4.444 5.777c-.083.083-12.307 2.668-12.361 2.614-.019-.02.692-3.246 1.58-7.17s1.662-7.088 1.718-7.03 2.135 2.672 4.619 5.809zm-9.774 2.173l-1.173 4.971c-.029.029-.693-.744-1.476-1.717-1.214-1.509-1.401-1.807-1.267-2.021.337-.542 4.925-6.262 4.979-6.209.032.031-.447 2.271-1.063 4.976zm-4.725 5.697c1.101 1.382 1.239 1.612 1.019 1.702-.14.057-1.504.36-3.032.673l-2.957.628c-.117.039-.141-.004-.069-.125.282-.476 3.593-4.538 3.674-4.509.051.018.665.753 1.365 1.631zm19.804 1.222c-.042.134-.764 3.283-1.605 6.998l-1.608 7.09-.08.337-.322-.337c-.465-.487-8.973-11.261-9.049-11.46-.045-.117 1.813-.566 6.224-1.504l6.401-1.353c.063-.008.079.094.037.228zM9.359 22.798c2.884 1.213 5.246 2.252 5.249 2.309s-1.668 2.212-3.713 4.788c-3.098 3.903-3.735 4.638-3.826 4.41-.06-.151-.741-3.094-1.514-6.54L4.03 21.046c-.065-.249-.073-.453-.017-.453s2.461.992 5.346 2.205zM28.697 23.9c-.04.134-1.106 4.818-2.371 10.41l-2.402 10.393c-.088.192-1.267-.336-7.533-3.371l-7.468-3.718c-.022-.066 2.041-2.743 4.583-5.951l4.623-5.832 5.068-1.075 5.32-1.087c.178-.009.231.06.18.232zm7.693 7.617l4.637 6.021c.016.198-13.489 6.812-13.627 6.674-.046-.046.807-4.017 1.896-8.823l2.37-9.827a1718.02 1718.02 0 0 1 4.723 5.955z" fill="url(#A)"/><defs><linearGradient id="A" x1="0" y1="30.891" x2="50.151" y2="17.285" gradientUnits="userSpaceOnUse"><stop stop-color="#3970ff"/><stop offset="1" stop-color="#17b9fe"/></linearGradient></defs></svg>