<svg xmlns="http://www.w3.org/2000/svg" viewBox="0 0 5102.03 953.79" xmlns:v="https://vecta.io/nano"><defs><linearGradient id="A" x1="432.64" y1="2222.87" x2="1400.65" y2="2008.03" gradientUnits="userSpaceOnUse"><stop offset="0" stop-color="#fff"/></linearGradient></defs><path d="M1400.93,2594.89H754.12c-189.25,0-343.22-154-343.22-343.22,0-105.92,47-203.8,129-268.54a343.56,343.56,0,0,1,37.6-25.78,332.23,332.23,0,0,1,143-45.56q14.28-1.18,28.8-1.2c6.47,0,12.91.21,19.33.57a347.25,347.25,0,0,1,265.14,148l.26.36.25.36L1113,2174.74a195.93,195.93,0,0,1-52,7,202.7,202.7,0,0,1-80.27-16.65l-32-46.63a244.08,244.08,0,0,0-199.5-104.22,235.26,235.26,0,0,0-75.71,12.44,234.33,234.33,0,0,0-69.43,37.81c-53.33,42.1-89.62,107.16-89.62,187.2h0c0,132.33,107.27,239.6,239.59,239.6h450.16l-88.88-129.71a371.82,371.82,0,0,0,104.45-30.9l69.92,102Zm-344.76-953.78H409.37l111.16,162.21,69.91,102a371.82,371.82,0,0,1,104.45-30.9L606,1744.74h450.16c132.33,0,239.59,107.26,239.59,239.59h0c0,80-36.29,145.1-89.61,187.2a235,235,0,0,1-32.17,21.34,231.73,231.73,0,0,1-37.27,16.47,235.15,235.15,0,0,1-75.7,12.44,241.45,241.45,0,0,1-44.24-4.14,244.23,244.23,0,0,1-155.26-100.08l-32-46.63a202.69,202.69,0,0,0-80.26-16.65,195.93,195.93,0,0,0-52,7L776,2176.15l.25.36.26.36a347.23,347.23,0,0,0,265.14,148c6.42.36,12.87.57,19.34.57q14.51,0,28.79-1.19a332.36,332.36,0,0,0,143-45.57,342.16,342.16,0,0,0,37.6-25.78c82-64.74,129-162.62,129-268.54C1399.39,1795.08,1245.43,1641.11,1056.17,1641.11Z" transform="translate(-409.37 -1641.11)" fill="url(#A)"/><g fill="#fff"><path d="M2300.54 225.28h102.62v495.83h-102.62zm644.34 131.14a189.41 189.41 0 0 0-23-55h0a185.88 185.88 0 0 0-72.59-65.84c-30.13-15.51-65-23.37-103.61-23.37-4.69 0-12.37.29-23.47.88s-23.83 3-37.67 7.23-28.36 10.88-43.25 19.81a141 141 0 0 0-33.05 28.2v-43h-96.5v495.82h102.59V451.34c0-47.19 11.25-83.49 33.42-107.9 22-24.23 51.74-36.52 88.29-36.52 28.84 0 51.18 5.78 66.38 17.18 15.44 11.59 26.88 25.38 34 41a139.69 139.69 0 0 1 12.59 48.22c1.15 16.74 1.73 29.83 1.73 38.92v268.88h102.63v-292.6c-.6-27.69-3.45-51.94-8.49-72.1zm-992.25-143.53c-143.44 0-260.14 116.7-260.14 260.14s116.72 260.16 260.14 260.16 260.15-116.7 260.15-260.15-116.68-260.15-260.15-260.15zm0 427.94c-92.52 0-167.79-75.28-167.79-167.8s75.27-167.79 167.79-167.79 167.8 75.27 167.8 167.79-75.26 167.86-167.8 167.86zm399.21-596.46c-23.808 0-45.271 14.342-54.381 36.338a58.86 58.86 0 0 0 12.764 64.146c16.836 16.833 42.154 21.866 64.148 12.753a58.86 58.86 0 0 0 36.328-54.387c-.039-32.49-26.37-58.817-58.86-58.85zm-882.69 260.95a166.66 166.66 0 0 1 118.59 49.2l2.59 2.59 65.3-65.22-2.59-2.59a258.37 258.37 0 0 0-183.86-76.28c-143.45 0-260.15 116.7-260.15 260.14s116.7 260.14 260.15 260.14a258.37 258.37 0 0 0 183.86-76.28l2.59-2.59-65.27-65.27-2.59 2.59a166.66 166.66 0 0 1-118.59 49.2c-92.52 0-167.79-75.27-167.79-167.79s75.24-167.84 167.76-167.84zM3965.7 562.36l-122.01-333.22-1.4-3.86h-109.76l195.42 492.11 1.47 3.72h71.79l191.94-487.8 3.17-8.03h-109.75L3965.7 562.36zm1021.61-337.08l-.01-174.98-.14-5.78h-102.54l.01 180.76H4769.9v94.75h114.73v395.21l.16 5.87h102.52V320.03h114.72v-94.75h-114.72zm-1436.61 0h102.61v495.83H3550.7z"/><circle cx="4011.37" cy="1744.33" r="58.86" transform="matrix(.22971 -.973259 .973259 .22971 982.71 3606.53)"/><path d="M3373.07 225.38h0a161.47 161.47 0 0 0-34.53 7.26 163.44 163.44 0 0 0-36.72 17.66 111.68 111.68 0 0 0-24.62 21.51v-45.58h-96.51V721.1h102.62V459.61c0-33.76 5-60 15-78s21.74-30.73 35.22-38.3a137.76 137.76 0 0 1 23.85-9.72c7.05-2 26.64-6.64 56.19-7.08l41.37-.05V224.05h-49.54c-6.02 0-22.4.46-32.33 1.33zm1357.92 223.08c-11.62-128.695-116.397-229.092-245.47-235.21h-.17l-5.77-.22h-1c-2.22 0-4.44-.08-6.58-.08h-.12l-6.46.08h-.64-.44l-5.64.22h-.36-.05a260.73 260.73 0 0 0-84.73 18.68c-80.555 32.615-139.326 103.53-156.42 188.74h0 0l-1 5-.56 3.16-.23 1.37-.07.45h0a261.51 261.51 0 0 0-3.4 36.37l-.07 6 .07 6.1c0 1.51.1 3 .16 4.53l.05 1.2h0a259.4 259.4 0 0 0 10.64 62.79h0l.31 1.05 1 3.19.06.19 1.16 3.57.43 1.26h0c31.172 91.706 110.752 158.471 206.48 173.23h0l1.14.17 4.91.68 1.5.19.53.06 4.1.47 2.36.24 3.86.34 2.47.2q1.93.13 3.87.24h.59l1.84.1 4.2.16h.77 1.33l6.2.08h.23l4.87-.05h.1a258.86 258.86 0 0 0 139.67-44.05l1.46-1 .59-.4.83-.58h.07l.14-.1 2.2-1.55h0a263.1 263.1 0 0 0 33.8-28.51l2.59-2.59-65.28-65.28-2.59 2.59a167 167 0 0 1-113.67 49.13h-.47l-4 .05h-.5c-1.31 0-2.62 0-3.92-.05h-1-.48l-2.35-.09-1.95-.1-1.62-.1-2.56-.19h-.14q-1.71-.15-3.42-.33h0l-2.41-.27-.8-.1c-1.08-.13-2.16-.28-3.23-.44l-2.64-.4-.36-.06c-61.947-10.314-113.038-54.184-132.6-113.86h414.45l.87-4.82a263 263 0 0 0 4.3-46.93c0-7.86-.4-16.13-1.19-24.58zm-423.88-5.32c13.618-73.906 74.535-129.858 149.33-137.16l.82-.07 2.79-.22c.63 0 1.26-.09 1.9-.12h.26c.55 0 1.09-.07 1.64-.09 1.09-.06 2.19-.1 3.29-.13h.66.46c2.64-.06 5.3-.06 7.94 0h.08.56c1.14 0 2.27.07 3.4.13l1.43.08h.38l2 .13c.91.06 1.81.14 2.71.22l.91.08c74.783 7.307 135.687 63.254 149.3 137.15z"/></g></svg>