<svg xmlns="http://www.w3.org/2000/svg" width="268" height="62" fill="#fff" xmlns:v="https://vecta.io/nano"><path d="M38.838 45.114l-11.166 4.799v-.48c-2.153.545-4.538.859-6.797.96-10.501-.101-18.836-5.534-18.933-11.999v-2.4c3.449 4.958 10.47 8.28 18.933 8.16 2.863.12 5.792-.328 8.253-.96l.971-2.4c-2.919.861-6.105 1.46-9.224 1.44-10.501.02-18.836-5.413-18.933-11.998v-1.92c3.449 4.583 10.455 7.906 18.933 7.679 3.814.227 7.544-.566 10.68-1.92l.486-2.4c-3.064 1.598-7.035 2.526-11.166 2.4-10.501.126-18.836-5.307-18.933-11.998v-1.92c3.449 4.69 10.47 8.012 18.933 8.159 4.81-.147 9.37-1.404 13.108-3.36l.486-2.88c-3.393 2.486-8.346 4.088-13.594 4.32C10.374 26.164 2.04 20.73 1.942 13.918 2.039 7.439 10.374 2.006 20.875 1.92c6.26.086 12.074 2.256 15.536 5.759l.337.555 2.448.01-.358-.565C35.395 3.053 28.509 0 20.875 0 9.256 0 0 6.331 0 13.918v24.956c.408 7.406 9.453 13.438 20.875 13.438 7.544 0 14.324-2.933 17.963-7.198z"/><path d="M34.296 62l3.92-16.469-11.269 4.844 6.86-28.578h-13.23l3.43-14.047h42.136l-3.43 14.047H48.995l-2.94 7.75 15.188-6.297L34.296 62zm6.86-19.86l-1.96 9.688L55.364 27.61l-13.229 5.813 5.88-13.563h13.228l2.45-10.172H25.477l-2.45 10.172h13.229l-6.37 27.125 11.27-4.843zm54.015-25.113c-.116 1.606-.709 2.87-1.779 3.794s-2.48 1.384-4.23 1.384c-1.913 0-3.42-.644-4.516-1.933S83 17.215 83 14.966v-.913c0-1.435.253-2.7.759-3.794s1.229-1.933 2.168-2.517 2.032-.877 3.277-.877c1.722 0 3.11.462 4.163 1.385s1.66 2.218 1.825 3.886h-3.076c-.075-.964-.344-1.663-.805-2.097s-1.164-.651-2.107-.651c-1.026 0-1.793.367-2.302 1.102s-.771 1.875-.785 3.42v1.128c0 1.613.245 2.792.733 3.537s1.26 1.118 2.313 1.118c.95 0 1.659-.217 2.127-.651s.737-1.106.805-2.015h3.076zm15.884-2.153c0 1.47-.26 2.758-.78 3.865s-1.262 1.962-2.23 2.564-2.076.902-3.327.902c-1.237 0-2.341-.297-3.312-.892s-1.723-1.444-2.256-2.548-.803-2.374-.81-3.81v-.738c0-1.47.265-2.763.795-3.88s1.278-1.976 2.246-2.575 2.073-.897 3.317-.897 2.35.3 3.317.897 1.716 1.457 2.245 2.574.795 2.408.795 3.871v.667zm-3.117-.677c0-1.566-.28-2.755-.84-3.569s-1.361-1.22-2.4-1.22c-1.033 0-1.829.402-2.39 1.205s-.844 1.98-.85 3.533v.728c0 1.524.28 2.707.84 3.547s1.367 1.262 2.42 1.262c1.032 0 1.825-.405 2.38-1.215s.833-1.991.84-3.543v-.728zM118.16 22h-3.076V7.07h3.076V22zm16.592 0h-3.077l-5.988-9.823V22h-3.076V7.07h3.076l5.999 9.844V7.07h3.066V22zM149.98 9.562h-4.573V22h-3.076V9.562h-4.512V7.07h12.161v2.492zm12.336 5.968h-5.906v3.999h6.931V22h-10.008V7.07h9.988v2.492h-6.911v3.558h5.906v2.41zm7.506 3.999h6.532V22h-9.608V7.07h3.076v12.46zm18.878-4h-5.906v4h6.931V22h-10.007V7.07h9.987v2.492h-6.911v3.558h5.906v2.41zm16.243 4.584c-.554.663-1.337 1.178-2.349 1.543s-2.132.55-3.363.55c-1.292 0-2.425-.283-3.399-.847s-1.726-1.382-2.256-2.456-.801-2.334-.815-3.783v-1.016c0-1.49.251-2.78.754-3.87s1.227-1.925 2.173-2.502 2.056-.867 3.328-.867c1.77 0 3.155.422 4.153 1.267s1.589 2.073 1.774 3.686h-2.995c-.136-.855-.439-1.48-.907-1.877s-1.113-.594-1.933-.594c-1.046 0-1.842.393-2.39 1.179s-.823 1.955-.83 3.507v.953c0 1.566.298 2.748.892 3.548s1.467 1.2 2.615 1.2c1.155 0 1.98-.246 2.471-.738v-2.574h-2.799v-2.266h5.876v5.957zm9.618-3.578h-2.45V22h-3.077V7.07h5.548c1.763 0 3.124.393 4.08 1.18s1.436 1.896 1.436 3.332c0 1.019-.22 1.868-.661 2.548s-1.11 1.222-2.005 1.625l3.23 6.101V22h-3.302l-2.799-5.465zm-2.45-2.492h2.48c.773 0 1.371-.197 1.795-.59s.636-.934.636-1.625c0-.704-.2-1.258-.6-1.661s-1.013-.605-1.84-.605h-2.472v4.481zm20.354 4.88h-5.394L226.046 22h-3.271l5.558-14.93h2.85L236.771 22h-3.27l-1.036-3.076zm-4.563-2.49h3.732l-1.876-5.59-1.856 5.59zm14.94.307V22h-3.076V7.07h5.824c1.121 0 2.107.205 2.958.616s1.506.992 1.964 1.748.687 1.615.687 2.579c0 1.463-.5 2.616-1.502 3.46s-2.388 1.267-4.158 1.267h-2.697zm0-2.492h2.748c.814 0 1.434-.191 1.861-.574s.641-.93.641-1.64c0-.732-.215-1.324-.646-1.775s-1.025-.683-1.784-.697h-2.82v4.686zM267.062 22h-3.076v-6.398h-5.998V22h-3.077V7.07h3.077v6.05h5.998V7.07h3.076V22zM91.46 35.83h-3.326V45h-1.838v-9.17H83v-1.494h8.46v1.494zm3.58 2.11c.581-.674 1.316-1.011 2.205-1.011 1.69 0 2.546.964 2.57 2.893V45h-1.779v-5.112c0-.547-.118-.934-.355-1.161s-.585-.34-1.044-.34c-.713 0-1.245.317-1.597.951V45h-1.78V33.75h1.78v4.19zm10.664 7.206c-1.128 0-2.042-.355-2.743-1.065s-1.051-1.657-1.051-2.838v-.22c0-.791.153-1.498.458-2.12a3.484 3.484 0 0 1 1.285-1.454 3.398 3.398 0 0 1 1.846-.52c1.079 0 1.913.344 2.501 1.032s.883 1.663.883 2.923v.718h-5.179c.054.654.273 1.171.656 1.552s.865.572 1.446.572c.816 0 1.48-.33 1.993-.99l.96.916a3.204 3.204 0 0 1-1.272 1.103c-.53.26-1.124.391-1.783.391zm-.212-6.79c-.489 0-.883.172-1.183.514s-.492.817-.575 1.428h3.39v-.132c-.038-.596-.197-1.046-.475-1.351s-.664-.458-1.157-.458zM115.825 45v-6.606h-1.209v-1.319h1.209v-.725c0-.879.244-1.558.732-2.036s1.172-.718 2.051-.718a4.1 4.1 0 0 1 .996.132l-.044 1.392a3.505 3.505 0 0 0-.681-.059c-.85 0-1.274.437-1.274 1.311v.703h1.61v1.319h-1.61V45h-1.78zm10.092-.776c-.522.615-1.265.922-2.227.922-.859 0-1.51-.251-1.951-.754s-.663-1.23-.663-2.183v-5.134h1.78v5.112c0 1.006.417 1.51 1.252 1.51.864 0 1.448-.31 1.75-.93v-5.692h1.78V45h-1.677l-.044-.776zm6.364-9.075v1.926h1.4v1.319h-1.4v4.423c0 .303.06.522.18.656s.333.201.64.201a2.73 2.73 0 0 0 .623-.073v1.377a4.383 4.383 0 0 1-1.172.168c-1.367 0-2.05-.754-2.05-2.263v-4.49h-1.304v-1.318h1.303V35.15h1.78zm8.159 9.075c-.523.615-1.265.922-2.227.922-.86 0-1.51-.251-1.952-.754s-.663-1.23-.663-2.183v-5.134h1.78v5.112c0 1.006.418 1.51 1.253 1.51.864 0 1.447-.31 1.75-.93v-5.692h1.78V45h-1.677l-.044-.776zm8.283-5.523a4.404 4.404 0 0 0-.725-.058c-.816 0-1.365.312-1.648.937V45h-1.78v-7.925h1.7l.043.886c.43-.688 1.026-1.032 1.787-1.032.254 0 .464.034.63.102l-.007 1.67zm5.075 6.445c-1.128 0-2.042-.355-2.743-1.065s-1.051-1.657-1.051-2.838v-.22c0-.791.153-1.498.458-2.12a3.484 3.484 0 0 1 1.285-1.454 3.398 3.398 0 0 1 1.846-.52c1.079 0 1.913.344 2.501 1.032s.883 1.663.883 2.923v.718h-5.179c.054.654.273 1.171.656 1.552s.865.572 1.446.572c.816 0 1.48-.33 1.993-.99l.96.916a3.204 3.204 0 0 1-1.272 1.103c-.53.26-1.124.391-1.783.391zm-.212-6.79c-.489 0-.883.172-1.183.514s-.492.817-.575 1.428h3.39v-.132c-.038-.596-.197-1.046-.475-1.351s-.664-.458-1.157-.458zm9.373 2.608c0-.776.154-1.475.462-2.098a3.37 3.37 0 0 1 1.296-1.436c.557-.334 1.196-.501 1.92-.501 1.068 0 1.936.344 2.603 1.032s1.027 1.602 1.08 2.74l.008.417c0 .781-.15 1.48-.45 2.095a3.33 3.33 0 0 1-1.29 1.428c-.559.337-1.205.505-1.937.505-1.118 0-2.013-.372-2.685-1.116s-1.007-1.738-1.007-2.978v-.088zm1.78.154c0 .816.169 1.454.506 1.915s.805.693 1.406.693 1.068-.235 1.402-.704.502-1.154.502-2.058c0-.8-.172-1.435-.516-1.904s-.812-.703-1.403-.703a1.63 1.63 0 0 0-1.384.692c-.342.462-.513 1.151-.513 2.07zM173.06 45v-6.606h-1.209v-1.319h1.209v-.725c0-.879.244-1.558.732-2.036s1.172-.718 2.051-.718a4.1 4.1 0 0 1 .996.132l-.044 1.392a3.505 3.505 0 0 0-.68-.059c-.85 0-1.275.437-1.275 1.311v.703h1.611v1.319h-1.611V45h-1.78zm11.3-7.925l.051.828c.557-.65 1.319-.974 2.285-.974 1.06 0 1.785.405 2.176 1.216.576-.811 1.386-1.216 2.431-1.216.874 0 1.525.241 1.952.725s.646 1.196.656 2.138V45h-1.78v-5.156c0-.503-.11-.872-.33-1.106s-.583-.352-1.09-.352c-.406 0-.737.109-.993.326a1.719 1.719 0 0 0-.539.853l.008 5.435h-1.78v-5.215c-.025-.932-.5-1.399-1.428-1.399-.713 0-1.219.29-1.516.872V45h-1.78v-7.925h1.677zm11.645 3.89c0-.777.154-1.476.461-2.099a3.37 3.37 0 0 1 1.297-1.436c.556-.334 1.196-.501 1.919-.501 1.069 0 1.937.344 2.603 1.032s1.027 1.602 1.08 2.74l.008.417c0 .781-.15 1.48-.45 2.095a3.33 3.33 0 0 1-1.29 1.428c-.559.337-1.204.505-1.937.505-1.118 0-2.013-.372-2.684-1.116s-1.007-1.738-1.007-2.978v-.088zm1.78.153c0 .816.168 1.454.505 1.915a1.64 1.64 0 0 0 1.406.693c.6 0 1.068-.235 1.403-.704s.502-1.154.502-2.058c0-.8-.173-1.435-.517-1.904s-.812-.703-1.402-.703a1.63 1.63 0 0 0-1.385.692c-.341.462-.512 1.151-.512 2.07zm9.345-4.043l.051.916c.586-.708 1.355-1.062 2.307-1.062 1.65 0 2.49.945 2.52 2.834V45h-1.78v-5.134c0-.503-.109-.876-.326-1.117s-.572-.363-1.066-.363c-.717 0-1.252.325-1.604.974V45h-1.78v-7.925h1.678zm10.78 8.071c-1.127 0-2.042-.355-2.742-1.065s-1.051-1.657-1.051-2.838v-.22c0-.791.152-1.498.457-2.12a3.484 3.484 0 0 1 1.286-1.454 3.398 3.398 0 0 1 1.845-.52c1.08 0 1.913.344 2.502 1.032s.882 1.663.882 2.923v.718h-5.178c.054.654.272 1.171.655 1.552s.866.572 1.447.572c.815 0 1.48-.33 1.992-.99l.96.916a3.204 3.204 0 0 1-1.271 1.103c-.53.26-1.124.391-1.784.391zm-.212-6.79c-.488 0-.882.172-1.183.514s-.492.817-.575 1.428h3.391v-.132c-.039-.596-.197-1.046-.476-1.351s-.664-.458-1.157-.458zm8.049 4.095l1.611-5.376h1.897l-3.15 9.126c-.483 1.333-1.303 2-2.46 2a3.18 3.18 0 0 1-.857-.132v-1.377l.337.022c.449 0 .787-.082 1.014-.245s.407-.439.538-.824l.257-.682-2.783-7.888h1.919l1.677 5.376z"/></svg>