<svg xmlns="http://www.w3.org/2000/svg" viewBox="0 0 6116.6 977.9" fill="#fff" xmlns:v="https://vecta.io/nano"><path d="M1368.1 977.9h-251.4V189.1h251.4l39.2.5c19.5.4 38.4 1.6 56.7 3.8h0c62.4 8 115.3 30.2 158.6 66.6s76 82.6 98.3 138.9c22.3 56.2 33.4 117.8 33.4 184.6h0c0 66.8-11.1 128.4-33.4 184.6s-55.1 102.5-98.3 138.9c-43.3 36.3-96.1 58.5-158.6 66.6h0c-17.9 2.2-36.7 3.5-56.4 3.8l-39.5.5h0zm-117.3-664.5v540.1H1368c11 0 24.9-.4 41.9-1.1s32-2.4 45.2-4.9h0c37.2-6.9 67.6-23.6 90.9-49.8s40.6-58.2 51.8-95.9 16.7-77.1 16.7-118.3h0c0-42.7-5.7-82.9-17-120.5s-28.8-69.2-52.3-94.8c-23.6-25.6-53.6-41.8-90.1-48.8h0c-13.1-2.9-28.2-4.7-45.2-5.2l-41.9-.8h0-117.2zm1142.7 664.5h-509.4V189.1h509.4v123.8h-377.4v194.5h311.7v123.8h-311.7v222.9h377.4v123.8zm263.5 0h-132V189.1h474.9v132H2657v196.6h277.2v131.5H2657v328.7zm584.4 0h-132V189.1h132v788.8zm365.9-15.8h-44.2v-713h-277.6v-44.2H3885v44.2h-277.6v713zm416.4 0h-44.2V204.9h44.2v757.2zm202 0h-44.2V204.9h42.1l321.8 703.6 318.7-703.6h44.2v756.2h-44.2v-650l-294.5 651h-49.4l-294.5-651v651zm1292.5 0h-462.7V204.9h462.7v44.2h-418.6v312.4h355.5v44.2h-355.5v312.4h418.6v44zm335.5 15.8h0c-51.2 0-97.2-8.3-138-25s-74.7-40.2-101.5-70.7-44.8-66.6-53.9-108.3h0l44.2-8.4c13.7 51.9 42.8 92.9 87.3 123s98.5 45.2 162 45.2h0c44.2 0 82.7-7 115.7-21s58.5-33.7 76.8-59.2 27.3-55.1 27.3-89.1h0c0-25.6-4.7-47-14.2-64.2s-21.5-31.1-36-41.8-29.7-19.2-45.5-25.5-29.8-11.2-42.1-14.7h0l-189.3-56.8c-27.3-8.1-50.9-17.9-70.7-29.4-19.8-11.6-36-24.7-48.6-39.4s-22-30.9-28.1-48.4-9.2-36.3-9.2-56.3h0c0-38.6 10.4-72.8 31.3-102.8s49.9-53.5 87-70.5c37.2-17 80.1-25.5 128.8-25.5h0c49.4 0 93.8 9.1 133 27.3s71.4 43.9 96.5 77 40.8 72 47.1 116.5h0l-44.2 8.4c-4.9-36.8-17.9-69.1-38.9-97s-48.2-49.5-81.5-64.9-70.6-23.1-112-23.1h0c-39.6 0-74.4 6.8-104.4 20.5s-53.4 32.1-70.2 55.2-25.2 49.1-25.2 77.8h0c0 30.1 8.2 54.3 24.5 72.3 16.3 18.1 36.2 32.1 59.7 42.1s45.9 18.1 67.3 24.5h0l156.7 47.3c13.3 3.9 29.6 9.6 48.9 17.1s38.3 18.3 57.1 32.3 34.4 32.5 46.8 55.5 18.7 51.8 18.7 86.5h0c0 32.6-6.1 62.1-18.4 88.3-12.3 26.3-30 48.7-53.1 67.3s-50.8 32.9-83.1 42.9c-32.5 10-68.6 15-108.6 15z"/><circle cx="888.4" cy="81" r="33.4"/><circle cx="888.4" cy="239.6" r="33.4"/><circle cx="738.2" cy="159.4" r="33.4"/><path d="M1064.5 313.7V0L548.9 35.2l-14.2 287.1c-11.8-2.7-8.3 11.9-8.3 11.9l-9.9 4.7c-33-.9-52.3 8-52.3 8-19.8-2.8-45.8 6.6-45.8 6.6-5.2-9.9-19.8-4.2-19.8-4.2v-6.6l-6.1-4.7v-15.1c-.5-20.7-33.9-25-33.9-25v-11.8l-5.7-.5-4.8-39.1-14.6-1.4c-1.4-49-68.2-37.6-68.2-37.6-49 0-62.9 46.5-62.9 46.5-44.7-1.3-42.8 17.6-42.8 17.6l2.6 41.5h-10.1c-31.4 1.2-3.1 25.1-3.1 25.1l-1.9 15.1c-40.3 13.2-47.2 57.2-47.2 57.2-7.5-1.9-11.3 9.4-11.3 9.4-29.6 13.2-46.5 69.8-46.5 69.8L25.8 415l28.3-25.1c6.9-18.2-8.8-7.5-8.8-7.5l-24.5 21.4c-12.6-16.3-12 9.4-12 9.4-7.6 2.4-8.8 10.6-8.8 10.6 3.1 12.6 13.8 6.3 13.8 6.3l15.1 76.7-6.6 16C0 562.4 47.8 586.3 47.8 586.3l26.4 141.8c-6.3 13.9 5.4 33.4 5.4 33.4.9-7.8 8.2-10.7 8.2-10.7 11.3-11 25.8 10.7 25.8 10.7l-4.1-22.9c-5-23.3-14.8-16.7-14.8-16.7l-33-145.3c12.9-1.6 13.5-30.5 13.5-30.5C88.1 504 129 476.6 129 476.6l-3.8 51.9c-11-.9-17 14.8-17 14.8-.3 19.2 19.2 9.7 19.2 9.7l.6 32.4c-12.3 9.1-22 36.4-22 36.4l-1.6 26.4c.6 19.5 15.1 16.7 15.1 16.7 7.2-9.7-6-18-6-18-10-18.5 11.6-44 11.6-44 10.1 1.3 12.3-16 12.3-16 0 6.6 20.4 4.1 20.4 4.1l-5.7 37.7c-22.6 43.4-8.2 61.6-8.2 61.6l-2.5 34.6c-5.7 3.8-5.7 49.6-5.7 49.6-10 45.3-1.9 91.2-1.9 91.2-.6 9.4-8.8 37.7-8.8 37.7-18.2 10.1-31.4 41.5-24.5 49.7s24.5 7.5 24.5 7.5c57.9-3.2 73-45.3 73-45.3 5.7-5.7 17.6-90.5 17.6-90.5 4.4-.6 9.4-54.7 9.4-54.7 7.5-1.3 7.5-44.7 7.5-44.7 11.3-1.9 11.3-33.4 11.3-33.4 8.2 2.6 14.5-52.1 14.5-52.1 6.4-.7 12.4 44.5 12.4 44.5-.4 27.4 11.8 44.4 11.8 44.4-1.4 10.8 7.1 56.1 7.1 56.1-.4 26.9 16.1 122.6 16.1 122.6l5.2 4.7v17c-1.9 30.2 41.5 31.5 41.5 31.5 47.2 8.6 46.2-29.1 46.2-29.1 0-6-17-38.2-17-38.2-2.8-13.2 2.8-34.9 2.8-34.9C391 835.9 374 728.3 374 728.3c8.5.9 5.7-16 5.7-16l10.4-.9-1.9-87.7-18.5-1.9c2.5-17.6-8.2-38.3-8.2-38.3 1.3-12.5-1.6-39.5-1.6-39.5l20.3.4c24.5-4.2-1.9-51.9-1.9-51.9 42.5-34.4-6.6-61.3-6.6-61.3l1.4-14.6c121.2 3.3 121.2-16.5 121.2-16.5 15.3.9 27.4-.6 36.6-2.8l-27.3 550.8h7.5L546.8 392c3.6-1.7 5.6-3.1 5.6-3.1 16-3.8 17.9-10.4 17.9-10.4v-36.8c-.9-12.4-11.1-16-19.2-16.9l.3-5.4 513.1-5.7zM738.2 114.4c14.5 0 27.4 7 35.7 17.7l70.7-40.8a43.14 43.14 0 0 1-1.2-10.2c0-24.8 20.2-45 45-45s45 20.2 45 45-20.2 45-45 45c-17.1 0-32.1-9.6-39.7-23.7l-69 39.8c2.2 5.3 3.5 11.1 3.5 17.3 0 6.1-1.2 11.9-3.5 17.3l69.8 40.3c7.8-13.3 22.3-22.3 38.8-22.3 24.8 0 45 20.2 45 45s-20.2 45-45 45-45-20.2-45-45c0-4.1.6-8.1 1.6-11.8l-71.1-41.1c-8.2 10.7-21.1 17.7-35.7 17.7-24.8 0-45-20.2-45-45 .1-25 20.3-45.2 45.1-45.2zM385.4 330.8l-25.1-2.5v-22.6c0-.1 26.3 4.2 25.1 25.1z"/></svg>