<svg xmlns="http://www.w3.org/2000/svg" width="243" height="50" fill="#fff" xmlns:v="https://vecta.io/nano"><path d="M88.05 1.174H76.132v47.567h11.92V1.174zm-16.703 17.87h-14.27V1.174H45.242v47.568h11.835V30.956h14.27V19.044zm152.347-17.87h-11.919v47.567h11.919V1.174zm19.014 47.562V36.825h-14.269v11.913h14.269zM122.549 0c-13.766 0-25.014 11.158-25.014 25 0 13.758 11.164 25 25.014 25 13.766 0 25.013-11.158 25.013-25-.084-13.842-11.247-25-25.013-25zm0 38.087A13.11 13.11 0 0 1 109.455 25a13.11 13.11 0 0 1 13.094-13.087c7.218 0 13.094 5.872 13.094 13.087s-5.876 13.087-13.094 13.087zM30.973 1.174H19.054v47.567h11.92V1.174zM7.185 15.537a7.183 7.183 0 0 0 7.186-7.181 7.183 7.183 0 0 0-7.186-7.181A7.183 7.183 0 0 0 0 8.355a7.183 7.183 0 0 0 7.185 7.182zM178.451 1.174h-21.404v30.957h11.919V13.087h9.485a11.913 11.913 0 1 1 0 23.826h-9.485v11.912h9.485a23.73 23.73 0 0 0 23.754-23.741c0-13.088-10.576-23.91-23.754-23.91z"/></svg>