<svg xmlns="http://www.w3.org/2000/svg" viewBox="0 0 272.4 39.3" xmlns:v="https://vecta.io/nano"><path d="M0 11.1h10.9v27.5h6.6V11.1h10.9V5H0v6.1zm52.4 21.3H39.7v-8h11v-6.2h-11v-7.1h12.7V5H33.1v33.6h19.3v-6.2zm20.7.7c-6 0-10-4.8-10-11.3s4-11.2 9.9-11.2c4.5 0 7 2 8.2 5.3h7.2C86.6 9.1 81.6 4.4 73 4.4c-9.8 0-16.8 7.3-16.8 17.4s7 17.5 16.8 17.5c8.6 0 13.7-4.5 15.5-11.8h-7c-1 3.2-3.7 5.6-8.4 5.6zm26.7-8.8h6.7v.1h7.7v14.2h6.6V24.3h7.6c.9 1.1 2.2 1.9 3.8 1.9 2.7 0 4.9-2.3 4.9-5 0-2.8-2.2-5-4.9-5-1.6 0-2.9.8-3.8 1.9h-7.6V0h-6.6v18.1h-7.7-6.7V5h-6.6v33.6h6.6c0 0 0-14.3 0-14.3zm37-14.5h10.9v27.5h6.6V9.8h10.9V3.7h-28.4v6.1zM174 1.7c-2.3 0-4.2 1.8-4.2 4.1s1.8 4.1 4.2 4.1c2.3 0 4.2-1.7 4.2-4.1-.1-2.3-2-4.1-4.2-4.1zM170.8 13h6.2v24.3h-6.2V13zm31.4 12.3l-.7 2-.8-2-9.6-21.6h-7.5v33.6h6.5V16l1 3 7.6 18.3h5.6l7.6-18.3 1-3v21.3h6.6V3.7h-7.6l-9.7 21.6zm24.1 12h19.3v-6.2h-12.7v-8h11v-6.2h-11V9.8h12.7V3.7h-19.3v33.6zm36.5-20c-4.1-1.4-5.9-2.3-5.9-4.8 0-2.3 1.4-3.6 3.8-3.6 2.3 0 4 1.5 4.1 4.2h6.7c-.3-6.7-4.3-10-10.6-10-6.6 0-10.6 4.2-10.6 10 0 5.6 3.6 8.3 9.6 10.3 4.2 1.4 5.9 2.7 5.9 4.9s-1.6 3.8-4.4 3.8c-3.4 0-5.1-1.8-5.3-5.1h-6.7c.2 6.4 4.2 10.9 11.8 10.9 6.3 0 11.2-3.7 11.2-10.2.1-5-2.4-8-9.6-10.4h0z" fill="#fff"/></svg>