<svg xmlns="http://www.w3.org/2000/svg" viewBox="0 0 4437.4 941.9" fill="#fff" xmlns:v="https://vecta.io/nano"><path d="M437.3 173.9H419C391.1 55 361 29.3 283.2 29.3h-9.5v471h66.8v21.3H97.6v-21.3h66.8v-471h-10.3c-77.8 0-108.6 28.6-135 144.5H0L7.3 8.1H430l7.3 165.8zM689 8.1v21.3h-50.6v217.2h187.1V29.3h-50.6V8.1h211.3v21.3h-50.6v471h50.6v21.3H774.8v-21.3h50.6V272.9H638.3v227.4H689v21.3H477.6v-21.3h50.6v-471h-50.6V8.1H689zm717.5 0l7.3 141.6H1397c-25.7-100.5-66.8-120.3-156.3-120.3h-48.4v219.4h31.5c52.8 0 74.8-28.6 86.6-93.9h16.1V372h-17.6c-14.7-76.3-34.5-99.8-92.4-99.8h-24.2v228.2h52.1c99.8 0 149.7-45.5 168.8-135h15.4l-5.1 156.3h-391.8v-21.3h50.6v-471h-50.6V8.1h374.8zm350.7 255.3c0 159.2 45.5 242.9 138.7 242.9 69.7 0 118.9-51.4 148.9-145.3h15.4l-5.1 159.9h-11c-3.7-9.5-8.1-14.7-18.3-14.7-23.5 0-69.7 22.7-141.6 22.7-149.7 0-243.6-80-243.6-261.2C1640.5 92.4 1744 0 1886.3 0c67.5 0 109.3 22.7 133.5 22.7 11 0 13.9-5.1 17.6-14.7h11l5.9 155.5h-16.1c-28.6-91-74.1-140.9-146-140.9-87.3.1-135 63.2-135 240.8zm528.3 4.4v232.6h62.4v21.3h-227.4v-21.3h55v-471h-55V8.1h198.1c132.8 0 215 16.1 215 122.5 0 88.8-52.8 117.4-135 124v2.2c84.4 10.3 118.1 40.4 118.1 125.5v49.9c0 37.4 2.2 55.8 26.4 55.8 19.8 0 24.9-13.9 35.2-66l16.9 3.7c-9.5 61.6-20.5 103.5-91.7 103.5-78.5 0-101.3-30.1-101.3-111.5v-75.6c0-47.7-18.3-74.1-72.6-74.1h-44.1zm0-21.3h19.8c75.6 0 110.1-30.8 110.1-115.9s-36-101.3-107.9-101.3h-22v217.2zm647.8-217.2h-70.4V8.1h148.2v21.3h-50.6l-121.1 245.1v226h53.6v21.3h-217.2v-21.3h53.6V281.7L2601 29.3h-44V8.1h220v21.3h-56.5l104.2 220.8 108.6-220.9zm299.4-21.2c129.9 0 216.4 30.8 216.4 144.5 0 126.2-100.5 158.5-235.5 158.5h-16.9v189.3h91.7v21.3h-256.8v-21.3h55v-471h-55V8.1h201.1zm-36 281.7h26.4c79.2 0 107.9-40.4 107.9-135.7 0-96.8-29.3-124.7-103.5-124.7h-30.8v260.4zm728.6-115.9H3907C3879.1 55 3849 29.3 3771.2 29.3h-9.5v471h66.8v21.3h-242.9v-21.3h66.8v-471h-10.3c-77.8 0-108.6 28.6-135 144.5H3488L3495.3 8h422.6l7.4 165.9zM4204.8 0c148.9 0 232.6 96.8 232.6 261.9S4358.2 529 4197.5 529c-156.3 0-236.3-94.6-236.3-259 0-165.8 91.7-270 243.6-270zm-3.6 22.7c-107.1 0-122.5 86.6-122.5 246.5 0 144.5 17.6 237 121.8 237 99.8 0 118.9-83.6 118.9-242.1-.1-157-14.8-241.4-118.2-241.4zM715.1 756.6c43.3 0 71.5 10.2 71.5 43.6 0 23.8-13.8 37.6-39.4 42v.5c29.8 4.2 48.6 20.1 48.6 44.9 0 41.5-34.7 51.7-82 51.7h-58.5v-7.6h22.2V764.1h-22.2v-7.6h59.8zm-10.2 84.5h6.8c35 0 46.7-12 46.7-40.2 0-27.9-12-36.8-45.2-36.8h-8.4v77zm0 90.6h12.3c36.6 0 48.3-10.4 48.3-42.8 0-29-12-41-46.7-41H705v83.8zm812.1-53.2h-59.3l-19.3 53.3h23.8v7.6h-52.5v-7.6h18.3l66.3-178.1h7l64 178.1h18v7.6h-71v-7.6h23l-18.3-53.3zm-56.7-7.6h54l-26.1-78.3-27.9 78.3zm852.1 24.8c0-25.8-19.6-30.3-53-38.9-30.5-7.8-48.3-16.7-48.3-49.9 0-26.4 17.8-53.3 54.3-53.3 20.4 0 32.6 8.1 40.7 8.1 3.9 0 5-1.8 6.8-5.2h3.9l1.8 52.7h-5.7c-7.8-32.6-18.5-48.3-48.3-48.3-24.3 0-37.3 13.3-37.3 33.4 0 20.9 19.6 27.7 42.8 33.9 28.5 7.6 57.2 15.4 57.2 55.1 0 33.4-21.1 58.5-59.8 58.5-24.3 0-37.9-7.8-46-7.8-3.9 0-4.7 2.9-6.8 7.8h-4.4l-2.6-59.5h5.7c7.8 32.9 20.9 52.2 53.3 52.2 27.6.1 45.7-15.8 45.7-38.8zm759.3-139.1v7.6h-19.6v167.6h19.6v7.6h-66.6v-7.6h19.6V764.1h-19.6v-7.6h66.6zm694.6 90.8c0 54.6 18.8 87.2 56.4 87.2 28.7 0 46.2-18.3 54-51.2h5.7l-1.8 55.6h-3.9c-1.8-3.4-2.9-5.2-6.8-5.2-8.1 0-26.6 8.1-49.3 8.1-50.9 0-84.3-27.7-84.3-94.3 0-61.9 37.3-94 85.4-94 20.4 0 37.9 8.1 46 8.1 3.9 0 5-1.8 6.8-5.2h3.9l1.8 54h-5.7c-7.8-32.9-24-49.6-52.7-49.6-35.4.1-55.5 26.2-55.5 86.5z"/></svg>