<svg width="389" height="85" viewBox="0 0 389 85" fill="none" xmlns="http://www.w3.org/2000/svg">
<path d="M128.426 12.403C127.661 13.6899 125.838 16.2638 124.664 16.2638C123.196 16.2638 121.269 15.3446 119.801 13.0464C118.627 11.2079 115.152 11.3611 113.562 11.6675C111.727 9.58392 107.543 5.15926 105.488 4.1297C102.919 2.84275 98.6982 0.360769 93.9271 0.268844C89.156 0.176918 87.5962 1.28002 84.9354 0.268844C82.2746 -0.742333 78.6045 1.37193 77.5952 2.10734C76.5859 2.84274 70.622 4.68125 68.3282 4.8651C66.0344 5.04895 62.0891 8.45018 61.5386 9.6452C60.9881 10.8402 59.0613 14.1495 58.1438 14.8849C57.2262 15.6203 50.8036 24.7209 47.317 24.9967C43.8304 25.2725 38.7841 27.019 36.4903 24.9967C34.1965 22.9743 33.4624 22.147 30.1594 22.6986C26.8563 23.2501 21.4429 18.7458 21.5347 14.8849C21.6264 11.0241 23.4615 7.99055 25.2048 7.25515C27.1621 7.86798 31.3888 8.65241 32.6367 6.88745C33.8845 5.12249 33.5236 2.59761 33.1872 1.55579C32.8508 2.8121 31.8109 5.04895 30.3429 3.94584C28.5078 2.56697 25.4113 3.21044 24.379 6.06012C23.2474 7.13258 20.8557 9.92098 20.3419 12.4949C19.6996 15.7123 20.5254 19.4812 23.3697 22.2389C26.214 24.9967 31.9944 25.4563 32.0862 27.8464C32.1779 30.2364 31.9027 31.4315 30.3429 33.27C28.7831 35.1085 26.6728 35.8439 26.948 40.1643C27.1444 43.247 27.8546 47.4996 28.1788 50.1842C27.1569 51.1647 24.8745 53.1625 23.9202 53.3096C22.7274 53.4935 20.3419 53.6773 19.5161 54.9643C18.6904 56.2512 17.7728 59.1928 16.0295 60.6636C14.2863 62.1344 8.68938 65.8114 7.40485 66.1791C6.12032 66.5468 5.01929 67.6499 4.74403 68.753C4.46878 69.8561 2.81725 71.1431 2.26673 71.327C1.71622 71.5108 0.431686 75.1878 0.339935 76.3828C0.248184 77.5779 0.615189 79.3244 1.44096 79.4164C2.26673 79.5083 3.55126 79.3244 4.37703 78.8648C5.03764 78.4971 5.67445 78.0375 5.91027 77.8536C5.84835 78.9165 5.87514 82.3163 6.12032 82.7257C6.39558 83.1853 6.39558 83.7368 7.03784 83.3691C7.68011 83.0014 7.86361 83.7368 7.86361 84.0126C7.86361 84.2884 8.04711 84.5642 8.68938 84.2884C9.33164 84.0126 12.0842 81.3468 12.4512 80.6114C12.8182 79.876 12.6347 78.7729 12.7265 78.4052C12.8182 78.0375 13.7357 77.0263 14.011 77.0263C14.2863 77.0263 15.112 76.9344 15.3873 75.8313C15.6625 74.7282 16.2131 72.7058 17.1306 71.5108C18.0481 70.3158 21.8099 66.5468 23.9202 66.1791C26.0305 65.8114 26.3058 65.4437 27.6821 63.9729C29.0583 62.5021 30.2511 62.2264 31.4439 62.1344C32.6367 62.0425 33.7377 62.4102 35.3892 61.7667C37.0408 61.1233 39.5181 61.3071 39.9768 61.3071C40.4356 61.3071 41.8119 61.8587 43.0047 60.3879C44.1974 58.9171 46.583 57.1705 47.0418 56.8028C47.5005 56.4351 47.9593 55.8835 48.3263 54.4127C49.3661 54.474 51.9046 54.4311 53.7397 53.7693C56.0335 52.9419 59.6118 51.655 62.5479 51.9308C65.4839 52.2065 70.255 53.1258 71.7231 52.6662C72.8975 52.2985 74.8426 51.7775 75.6684 51.563C75.6684 52.4517 75.8703 54.5414 76.6777 55.7916C77.687 57.3543 78.3292 58.8251 77.9622 59.9282C77.5952 61.0313 76.3107 61.7667 76.2189 62.0425C76.1272 62.3183 78.2375 62.2264 78.3292 62.1344C78.421 62.0425 77.687 63.1456 76.6777 63.3295C75.8703 63.4765 74.9344 63.3907 74.5674 63.3295C74.0169 64.3406 72.8975 66.4733 72.8241 66.9145C72.7507 67.3558 72.7935 69.5497 72.8241 70.5915H75.0261C75.8825 69.8561 77.6686 68.3118 77.9622 68.0176C78.3292 67.6499 83.0086 62.686 83.1003 62.1344C83.1921 61.5829 83.5591 60.0202 82.9168 59.2848C82.2746 58.5494 81.1735 56.3432 81.1735 54.4127V50.5519C81.3876 50.2148 81.7975 49.4304 81.7241 48.9891C82.3969 48.315 83.7793 46.8565 83.9261 46.4152C84.0729 45.974 84.4766 45.067 84.6601 44.6687C84.9354 45.2509 85.5409 46.3785 85.7611 46.2314C86.0364 46.0475 87.9632 42.6463 88.422 41.9109C88.8807 41.1755 89.89 40.8997 90.7158 41.4513C91.5415 42.0028 93.9271 45.5879 94.2941 46.2314C94.5877 46.7462 94.6611 47.3651 94.6611 47.6103C94.8446 47.978 93.3766 48.9891 93.6518 49.173C93.872 49.3201 94.4164 49.3568 94.6611 49.3568C94.8446 50.2761 94.1106 50.8276 93.6518 51.1954C93.1931 51.563 92.0003 51.3792 91.2663 51.8388C90.5323 52.2985 89.89 54.2289 89.89 55.0562C89.89 55.8835 89.523 59.9282 89.89 59.9282C90.257 59.9282 91.6333 59.2848 92.5508 58.6413C93.2848 58.1265 94.1412 56.8947 94.4776 56.3432C94.4776 56.8334 94.551 57.7036 94.8446 57.2624C95.2116 56.7109 95.6704 55.7916 96.7714 55.5158C97.8724 55.2401 99.4322 53.2177 99.7992 52.2065C100.166 51.1954 98.8817 48.6214 98.3312 47.6103C97.7807 46.5991 98.5147 43.1979 98.3312 42.2786C98.1477 41.3594 98.0559 39.2451 97.5972 37.0389C97.1384 34.8327 95.6704 35.8439 94.8446 35.4762C94.184 35.182 93.273 35.3536 92.9001 35.4762C93.9534 34.3912 94.8808 33.6209 95.2116 32.6265C95.5786 31.5234 97.1384 29.0414 98.0559 28.306C98.7899 27.7177 100.197 27.2029 100.808 27.019C101.42 27.448 102.662 28.4347 102.735 28.9495C102.827 29.5929 105.213 33.3619 104.937 35.4762C104.662 37.5904 109.617 39.9805 111.085 38.5097C112.553 37.0389 114.204 38.0501 114.388 34.465C114.571 30.8799 115.948 31.7992 116.498 28.9495C116.406 28.3366 116.48 26.6881 117.507 24.9967C118.535 23.3053 118.119 21.5955 117.783 20.952C118.333 21.5035 119.728 22.5147 120.902 22.147C122.37 21.6874 123.563 20.952 123.838 19.9408C123.135 20.094 121.563 20.3085 120.902 19.9408C120.242 19.5731 119.22 19.2361 118.792 19.1135C118.455 18.5007 117.617 17.275 116.957 17.275C116.743 17.0911 116.351 16.6315 116.498 16.2638C116.682 15.8042 118.15 16.9992 120.719 17.7346C123.288 18.47 125.49 18.2862 126.774 16.9992C128.059 15.7123 128.426 13.4754 128.426 12.403Z" fill="#1B837C"/>
<path d="M32.3956 62.1314L37.5788 47.4538C37.7493 46.9709 38.4023 46.8985 38.6744 47.3324C38.9362 47.7497 39.5586 47.7026 39.7545 47.2506L43.7287 38.0806C43.9281 37.6206 44.5616 37.5726 44.828 37.9973C45.1009 38.4323 45.7533 38.3689 45.9373 37.8895L47.1215 34.8036C47.8101 33.0092 50.2761 32.825 51.2236 34.4973L54.4013 40.1059C55.8372 42.6403 59.5506 42.447 60.7157 39.7771L62.4016 35.9135C62.6977 35.2351 63.6083 35.1138 64.0717 35.6909C64.5416 36.2761 65.4672 36.1414 65.7509 35.4466L69.3013 26.7504C70.0527 24.9098 72.6489 24.8814 73.4405 26.7051C74.2147 28.4891 76.7365 28.5125 77.5437 26.7431L79.7969 21.804C80.1579 21.0128 81.2427 20.9153 81.7389 21.6295C82.251 22.3665 83.3782 22.2337 83.705 21.3979L88.4516 9.25943C89.3545 6.95041 92.5253 6.70636 93.7709 8.85003L95.1289 11.1871C95.6778 12.1317 97.0451 12.1232 97.5822 11.1718C98.0956 10.2625 99.3837 10.2045 99.9768 11.064L100.064 11.1898C100.72 12.1416 102.159 12.0316 102.664 10.9912L105.883 4.35254C108.041 5.68584 111.838 9.71004 113.562 11.6677C115.153 11.3613 118.627 11.2081 119.801 13.0466C121.269 15.3447 123.196 16.264 124.664 16.264C125.839 16.264 127.661 13.6901 128.426 12.4031C128.426 13.4756 128.059 15.7124 126.775 16.9994C125.49 18.2863 123.288 18.4702 120.719 17.7348C119.482 17.3808 118.501 16.9204 117.795 16.5893C117.034 16.2323 116.593 16.0256 116.498 16.264C116.351 16.6317 116.743 17.0913 116.957 17.2751C117.618 17.2751 118.456 18.5008 118.792 19.1136C119.22 19.2362 120.242 19.5733 120.902 19.941C121.563 20.3087 123.135 20.0942 123.838 19.941C123.563 20.9522 122.37 21.6876 120.902 22.1472C119.728 22.5149 118.333 21.5037 117.783 20.9522C118.119 21.5956 118.535 23.3054 117.508 24.9969C116.48 26.6883 116.407 28.3368 116.498 28.9496C116.254 30.2163 115.846 30.7383 115.452 31.2423C114.96 31.8721 114.49 32.4736 114.388 34.4651C114.265 36.8711 113.48 37.207 112.534 37.6123C112.07 37.8109 111.568 38.0261 111.085 38.5098C109.617 39.9806 104.662 37.5906 104.938 35.4763C105.132 33.9798 103.994 31.6542 103.28 30.1948C102.985 29.5924 102.762 29.1376 102.735 28.9496C102.662 28.4349 101.42 27.4482 100.809 27.0192C100.197 27.2031 98.7901 27.7178 98.0561 28.3062C97.1386 29.0416 95.5788 31.5235 95.2118 32.6266C94.943 33.4344 94.2807 34.0943 93.477 34.8951C93.2912 35.0801 93.0979 35.2727 92.9002 35.4763C93.2732 35.3537 94.1842 35.1822 94.8448 35.4763C95.0913 35.5861 95.3952 35.573 95.7123 35.5592C96.4573 35.527 97.2756 35.4916 97.5973 37.039C97.8809 38.4025 98.0242 39.7308 98.1357 40.7637C98.2045 41.4021 98.2613 41.9276 98.3314 42.2788C98.4034 42.6396 98.334 43.3829 98.2565 44.2139C98.1365 45.5 97.9969 46.9962 98.3314 47.6104C98.8819 48.6216 100.166 51.1955 99.7994 52.2067C99.4324 53.2179 97.8726 55.2402 96.7716 55.516C95.8014 55.759 95.3299 56.5016 94.9804 57.0521C94.9333 57.1263 94.8884 57.197 94.8448 57.2626C94.5512 57.7038 94.4778 56.8336 94.4778 56.3433C94.1413 56.8949 93.285 58.1267 92.551 58.6414C91.6334 59.2849 90.2572 59.9284 89.8902 59.9284C89.6206 59.9284 89.747 57.7461 89.8332 56.2596C89.8643 55.7224 89.8902 55.276 89.8902 55.0564C89.8902 54.229 90.5324 52.2986 91.2664 51.839C91.6489 51.5995 92.1559 51.5347 92.6188 51.4756C93.0442 51.4212 93.4323 51.3716 93.652 51.1955C93.6666 51.1838 93.6814 51.172 93.6965 51.1599C94.1564 50.7924 94.8389 50.2471 94.6613 49.357C94.4166 49.357 93.8722 49.3202 93.652 49.1732C93.5203 49.0852 93.7876 48.8079 94.0822 48.5023C94.4034 48.1691 94.757 47.8022 94.6613 47.6104C94.6613 47.3653 94.5879 46.7463 94.2943 46.2316C93.9272 45.5881 91.5417 42.003 90.7159 41.4515C89.8902 40.8999 88.8809 41.1757 88.4221 41.9111C88.2898 42.1231 88.0355 42.5568 87.7339 43.0711C86.9895 44.3404 85.9572 46.1007 85.7613 46.2316C85.5411 46.3786 84.9355 45.251 84.6603 44.6688C84.4768 45.0672 84.0731 45.9742 83.9263 46.4154C83.7795 46.8566 82.3971 48.3152 81.7242 48.9893C81.7976 49.4305 81.3878 50.215 81.1737 50.552V54.4129C81.1737 56.3433 82.2747 58.5495 82.917 59.2849C83.4977 59.9498 83.2533 61.291 83.1334 61.9497C83.1206 62.0195 83.1093 62.0817 83.1005 62.1346C83.0087 62.6861 78.3294 67.6501 77.9624 68.0178C77.6688 68.312 75.8827 69.8563 75.0263 70.5917H72.8243C72.7937 69.5499 72.7509 67.3559 72.8243 66.9147C72.8977 66.4735 74.017 64.3408 74.5676 63.3296C74.9346 63.3909 75.8704 63.4767 76.6779 63.3296C77.6871 63.1458 78.4211 62.0427 78.3294 62.1346C78.2376 62.2265 76.1273 62.3184 76.2191 62.0427C76.2497 61.9507 76.4128 61.8078 76.6303 61.6171C77.0652 61.2358 77.7177 60.6638 77.9624 59.9284C78.3294 58.8253 77.6871 57.3545 76.6779 55.7918C75.8704 54.5416 75.6686 52.4518 75.6686 51.5632C74.8428 51.7777 72.8977 52.2986 71.7232 52.6663C70.6927 52.989 68.0345 52.6321 65.526 52.2954C64.461 52.1524 63.423 52.0131 62.548 51.9309C59.612 51.6551 56.0336 52.9421 53.7398 53.7694C51.9048 54.4313 49.3663 54.4742 48.3265 54.4129C47.9594 55.8837 47.5007 56.4352 47.0419 56.8029C46.9778 56.8543 46.8762 56.9326 46.7454 57.0332C45.94 57.6532 44.031 59.1226 43.0048 60.388C42.0159 61.6075 40.9008 61.4367 40.2871 61.3428C40.1606 61.3234 40.0554 61.3073 39.977 61.3073C39.9182 61.3073 39.8263 61.3043 39.7073 61.3003C38.8971 61.2737 36.8294 61.2059 35.3894 61.7669C34.2488 62.2113 33.3708 62.1734 32.5437 62.1377C32.4942 62.1356 32.4448 62.1334 32.3956 62.1314Z" fill="url(#paint0_linear)" fill-opacity="0.62"/>
<path d="M106.739 4.95182L103.593 11.4397C102.745 13.1891 100.317 13.3736 99.212 11.7726L99.1255 11.6472C98.9664 11.4167 98.6199 11.4322 98.4822 11.676C97.554 13.3203 95.1831 13.3349 94.2344 11.7023L92.8765 9.36523C92.0674 7.97279 90.001 8.13088 89.4148 9.63007L84.6667 21.7725C84.0402 23.3747 81.8715 23.6287 80.8892 22.215C80.8748 22.1942 80.8632 22.1877 80.8556 22.1843C80.845 22.1796 80.8289 22.176 80.8094 22.1777C80.7898 22.1795 80.7746 22.1859 80.765 22.1924C80.7581 22.1971 80.7479 22.2056 80.7375 22.2285L78.4839 27.1684C77.3076 29.7467 73.6201 29.7128 72.4919 27.1132C72.0656 26.1311 70.6626 26.1464 70.2579 27.1375L66.7068 35.8355C66.137 37.2312 64.2938 37.5213 63.317 36.3961L61.6628 40.1868C60.16 43.6307 55.3529 43.8795 53.5001 40.6093L50.3246 35.0046C49.8085 34.0938 48.461 34.1938 48.086 35.1708L46.9016 38.2573C46.5026 39.2971 45.2688 39.5991 44.4359 39.044L40.7023 47.6586C40.2846 48.6225 39.1403 48.9001 38.3354 48.4111L33.4824 62.1536C33.1557 62.1637 32.8462 62.1503 32.5435 62.1373C32.173 62.1213 31.8128 62.1057 31.4438 62.1342C31.3941 62.138 31.3443 62.1422 31.2945 62.1467L36.6042 47.111C36.9766 46.0564 38.2108 45.732 39.051 46.2761L42.7801 37.6716C43.2066 36.6878 44.3852 36.4143 45.1968 36.9355L46.1562 34.4356C47.1556 31.8311 50.7481 31.5645 52.1238 33.9926L55.2993 39.5973C56.3136 41.3876 58.9453 41.2514 59.768 39.366L61.4544 35.5014C62.0487 34.1396 63.8604 33.8756 64.8243 34.9832L68.3441 26.3618C69.4389 23.6802 73.235 23.6389 74.3883 26.2961C74.8053 27.2569 76.1682 27.2695 76.6029 26.3165L78.8565 21.3767C79.5485 19.8598 81.636 19.6732 82.5879 21.0432C82.6033 21.0653 82.6152 21.0715 82.6223 21.0746C82.633 21.0791 82.6496 21.0826 82.6702 21.0802C82.6907 21.0778 82.7061 21.0705 82.7154 21.0637C82.7216 21.059 82.7317 21.0503 82.7415 21.0252L87.4896 8.88274C88.7047 5.77538 92.9875 5.44772 94.6645 8.33379L96.0225 10.6709C96.1697 10.9241 96.5375 10.9218 96.6815 10.6668C97.5688 9.09507 99.8027 8.99496 100.828 10.4809L100.915 10.6063C101.121 10.9053 101.574 10.8709 101.733 10.5441L104.971 3.8667C105.15 3.9586 105.322 4.0465 105.488 4.12944C105.848 4.30973 106.273 4.59412 106.739 4.95182Z" fill="#4EFFD4"/>
<path d="M148.652 61.2476V21H164.674C168.803 21 171.984 21.9325 174.219 23.7974C176.491 25.6242 177.628 28.1932 177.628 31.5043C177.628 33.7118 177.06 35.5957 175.923 37.1561C174.787 38.7166 173.215 39.8583 171.208 40.5815C173.518 41.1904 175.317 42.3132 176.605 43.9497C177.931 45.5862 178.594 47.6605 178.594 50.1724C178.594 53.7499 177.438 56.4902 175.128 58.3932C172.817 60.2961 169.56 61.2476 165.356 61.2476H148.652ZM153.197 38.983H163.992C170.015 38.983 173.026 36.6233 173.026 31.904C173.026 27.1466 170.015 24.7679 163.992 24.7679H153.197V38.983ZM153.197 57.4797H164.901C170.961 57.4797 173.992 55.0249 173.992 50.1153C173.992 45.2056 170.961 42.7508 164.901 42.7508H153.197V57.4797Z" fill="white"/>
<path d="M195.057 61.7614C188.429 61.7614 185.115 58.0887 185.115 50.7433V33.5024H189.717V50.6862C189.717 53.16 190.209 54.9869 191.194 56.1667C192.217 57.3465 193.807 57.9364 195.966 57.9364C198.315 57.9364 200.227 57.1562 201.705 55.5958C203.182 53.9973 203.92 51.885 203.92 49.259V33.5024H208.522V61.2476H204.034V56.5663C203.163 58.2409 201.932 59.5349 200.341 60.4484C198.788 61.3237 197.027 61.7614 195.057 61.7614Z" fill="white"/>
<path d="M224.461 61.7614C221.658 61.7614 219.537 60.9431 218.098 59.3066C216.697 57.632 215.996 55.2152 215.996 52.0563V21H220.598V51.7138C220.598 55.7861 222.208 57.8223 225.427 57.8223C226.374 57.8223 227.226 57.7081 227.984 57.4797L227.87 61.3618C226.696 61.6282 225.56 61.7614 224.461 61.7614Z" fill="white"/>
<path d="M240.136 61.7614C237.333 61.7614 235.212 60.9431 233.773 59.3066C232.372 57.632 231.671 55.2152 231.671 52.0563V21H236.273V51.7138C236.273 55.7861 237.883 57.8223 241.102 57.8223C242.049 57.8223 242.901 57.7081 243.659 57.4797L243.545 61.3618C242.371 61.6282 241.235 61.7614 240.136 61.7614Z" fill="white"/>
<path d="M249.298 61.4862V21.2386H265.149C269.467 21.2386 272.762 22.2852 275.035 24.3785C277.345 26.4717 278.501 29.4594 278.501 33.3414C278.501 37.1854 277.345 40.173 275.035 42.3044C272.762 44.3976 269.467 45.4443 265.149 45.4443H253.957V61.4862H249.298ZM253.957 41.5051H264.581C270.793 41.5051 273.899 38.7839 273.899 33.3414C273.899 27.8609 270.793 25.1206 264.581 25.1206H253.957V41.5051Z" fill="white"/>
<path d="M294.656 62C290.3 62 286.853 60.725 284.316 58.1751C281.778 55.587 280.509 52.0856 280.509 47.6707C280.509 44.8163 281.077 42.3044 282.214 40.135C283.35 37.9276 284.903 36.2339 286.872 35.0541C288.88 33.8362 291.19 33.2273 293.804 33.2273C297.553 33.2273 300.489 34.4451 302.61 36.8809C304.731 39.2787 305.792 42.5898 305.792 46.8144V48.5841H284.997C285.149 51.743 286.058 54.1598 287.725 55.8344C289.391 57.471 291.702 58.2892 294.656 58.2892C296.322 58.2892 297.913 58.0418 299.428 57.5471C300.943 57.0142 302.383 56.1579 303.746 54.9781L305.337 58.2321C304.087 59.412 302.496 60.3444 300.565 61.0295C298.633 61.6765 296.663 62 294.656 62ZM293.917 36.6526C291.304 36.6526 289.24 37.4708 287.725 39.1074C286.209 40.7439 285.319 42.8943 285.054 45.5584H301.814C301.701 42.7421 300.962 40.5536 299.599 38.9932C298.273 37.4328 296.379 36.6526 293.917 36.6526Z" fill="white"/>
<path d="M311.315 61.4862V33.741H315.804V38.7078C317.281 35.3586 320.311 33.5127 324.894 33.1702L326.542 32.9989L326.883 36.9951L323.985 37.3376C321.372 37.566 319.383 38.4033 318.019 39.8496C316.656 41.2577 315.974 43.1988 315.974 45.6726V61.4862H311.315Z" fill="white"/>
<path d="M330.541 61.4862V21.2386H335.143V46.0722H335.257L348.04 33.741H353.892L340.029 47.0998L355.085 61.4862H349.233L335.257 48.47H335.143V61.4862H330.541Z" fill="white"/>
<path d="M366.63 62C364.471 62 362.426 61.6955 360.494 61.0866C358.563 60.4776 356.972 59.6213 355.722 58.5176L357.199 55.2635C358.563 56.3672 360.059 57.1855 361.688 57.7183C363.354 58.2131 365.04 58.4605 366.744 58.4605C368.903 58.4605 370.532 58.0609 371.63 57.2616C372.728 56.4624 373.278 55.3777 373.278 54.0076C373.278 52.9419 372.918 52.1046 372.198 51.4957C371.479 50.8487 370.342 50.3539 368.789 50.0114L363.619 48.8696C358.923 47.842 356.574 45.4062 356.574 41.5622C356.574 39.0503 357.559 37.0332 359.529 35.5108C361.536 33.9884 364.149 33.2273 367.369 33.2273C369.263 33.2273 371.062 33.5317 372.766 34.1407C374.509 34.7116 375.948 35.5679 377.084 36.7097L375.55 39.9637C374.452 38.9361 373.164 38.1559 371.687 37.6231C370.248 37.0522 368.808 36.7668 367.369 36.7668C365.248 36.7668 363.638 37.1854 362.54 38.0227C361.441 38.86 360.892 39.9637 360.892 41.3339C360.892 43.4652 362.294 44.8353 365.096 45.4443L370.266 46.5289C372.691 47.0618 374.528 47.9181 375.777 49.0979C377.027 50.2397 377.652 51.8001 377.652 53.7792C377.652 56.3292 376.649 58.3463 374.641 59.8306C372.634 61.2769 369.963 62 366.63 62Z" fill="white"/>
<defs>
<linearGradient id="paint0_linear" x1="88.6208" y1="-9.58114" x2="88.6208" y2="78.9392" gradientUnits="userSpaceOnUse">
<stop stop-color="#4EFFEA"/>
<stop offset="1" stop-color="#4EFFF4" stop-opacity="0"/>
</linearGradient>
</defs>
</svg>
