<svg xmlns="http://www.w3.org/2000/svg" viewBox="0 0 571 124.9" xmlns:v="https://vecta.io/nano"><g fill="#3aef94"><path d="M91.2 25.6c-11 15.3-24.8 43.6-30.1 54.6a332.56 332.56 0 0 1 3 17.8c-1.1-3.5-3.4-9.2-5.2-13.3v.1s0-.2-.2-.7l-1.9-4.3c-1.2-2.5-3.1-6.3-6.1-11.8C31.5 35.3 0 54.4 0 54.4c5.1 3.3 16.4 21.5 21 32.7s11.3 27.9 24.4 34.5c18 7.8 30.5.2 37.9-6.8a17.59 17.59 0 0 1-.6-4.6c0-8.9 6.6-16.2 15.1-17.4l29.5-58.1c11.7-22.3 27-30.2 27-30.2-30.9-12-49.1 1.7-63.1 21.1z"/><circle transform="matrix(.3827 -.9239 .9239 .3827 -39.9036 160.5723)" cx="100.2" cy="110.1" r="14.7"/></g><path d="M163.3 124.9c-14.8 0-25.8-11.4-25.8-26.6s11.1-26.6 25.8-26.6c14.1 0 24.6 9.5 26 23.8H172c-.3-5.1-3.6-9.1-8.6-9.1-5.4 0-9.1 4.6-9.1 11.9 0 7.1 3.6 12 9.1 12 4.9 0 8.3-4.3 8.6-9.2h17.3c-1.4 14.3-12 23.8-26 23.8zm48.6-1h-16.3V55.5h16.3v21.4c3.8-3.3 8.4-5.2 14.3-5.2 10.4 0 17.8 6.7 17.8 19.3v33h-16.3V96.1c0-5.9-2.5-9.7-7.9-9.7-4.4 0-7.9 2.8-7.9 9.6v27.9zm64.4.9c-15.7 0-26.4-10.6-26.4-26.6 0-15.3 11.1-26.5 26.3-26.5 17 0 28.3 13.8 25.4 30.7H267c.1 5.9 3.5 9.7 9 9.7 4.6 0 7.6-1.9 9.1-5.6h16.3c-3.3 11.7-12.4 18.3-25.1 18.3zM267 92.2h17.1c-.2-5.1-3.3-8.5-8.3-8.5-4.9 0-8.3 3.4-8.8 8.5zm63.9 32.7c-14.8 0-25.8-11.4-25.8-26.6s11.1-26.6 25.8-26.6c14.1 0 24.6 9.5 26 23.8h-17.3c-.3-5.1-3.6-9.1-8.6-9.1-5.4 0-9.1 4.6-9.1 11.9 0 7.1 3.6 12 9.1 12 4.9 0 8.3-4.3 8.6-9.2h17.3c-1.4 14.3-12.1 23.8-26 23.8zm48.9-24.3v23.3h-16.3V55.5h16.3v37.9l15.9-20.8h18.8l-19 24.3 21.6 27h-20.8l-16.5-23.3zm74.7 17.5c-4.2 4.4-9.2 6.8-15.2 6.8-13.8 0-22.9-11.9-22.9-26.6 0-14.9 9.1-26.6 22.9-26.6 5.3 0 9.9 1.9 13.9 5.7V55.5h16.3v68.4h-15v-5.8zm-11.3-7.9c5.1 0 9.8-3.9 9.8-12 0-8.2-4.9-11.8-9.8-11.8s-9.8 3.7-9.8 11.9c0 8 4.8 11.9 9.8 11.9zm59.4 14.7c-15.2 0-26.8-11.9-26.8-26.6s11.6-26.6 26.8-26.6 26.8 11.9 26.8 26.6c-.1 14.6-11.7 26.6-26.8 26.6zm0-14.6c5.1 0 9.8-4 9.8-12s-4.8-11.9-9.8-11.9c-5.1 0-9.8 3.9-9.8 11.9s4.7 12 9.8 12zm56.4 14.6c-11.5 0-18.3-6.9-18.3-18.6V86.8h-9.5V72.6h9.5v-15H557v15.1h14v14.2h-14v15.6c0 5 2.1 7.2 6.6 7.2 2.7 0 5.2-.7 7.1-1.8v14.2c-3.7 2-7.1 2.8-11.7 2.8z" fill="#fff"/><circle transform="matrix(.3827 -.9239 .9239 .3827 160.7359 436.9663)" cx="407.4" cy="98.2" r="12.2" fill="#3aef94"/></svg>