<svg width="50" height="49" viewBox="0 0 50 49" fill="none" xmlns="http://www.w3.org/2000/svg">
<path fill-rule="evenodd" clip-rule="evenodd" d="M7.43114 8.07682C3.91737 12.519 0.80789 16.4525 0.521233 16.8179L0 17.4822L2.47756 28.3904L4.95511 39.2986L14.9776 44.1492L25 49L35.0224 44.1492L45.0449 39.2986L47.5224 28.3904L50 17.4822L49.4788 16.8179C49.1921 16.4525 46.0826 12.519 42.5689 8.07682L36.1802 0H25H13.8198L7.43114 8.07682ZM28.5957 7.57243C26.6808 9.98507 25.0628 11.9591 25 11.9591C24.9372 11.9591 23.3192 9.98507 21.4043 7.57243L17.9229 3.1858H25H32.0771L28.5957 7.57243ZM18.8048 9.34839C20.9126 12.0102 22.7079 14.3017 22.7944 14.4404C22.9297 14.6577 22.5304 15.227 19.9134 18.5472C17.5155 21.5893 16.8168 22.3917 16.5975 22.3545C16.2678 22.2985 4.56707 17.4011 4.39846 17.2485C4.33458 17.1907 6.23604 14.6765 8.62388 11.6616C14.8928 3.74604 14.5902 4.10588 14.7963 4.32312C14.8931 4.4252 16.6969 6.68661 18.8048 9.34839ZM40.887 11.0484C43.3712 14.1856 45.3708 16.7855 45.3307 16.8257C45.2477 16.9091 33.0235 19.4936 32.9693 19.4393C32.95 19.4198 33.6611 16.1932 34.5497 12.2692C35.4383 8.34503 36.2114 5.18165 36.2678 5.23944C36.3242 5.29709 38.4028 7.9111 40.887 11.0484ZM31.1127 13.2216C30.4966 15.9268 29.969 18.1638 29.9401 18.1927C29.9114 18.2216 29.2472 17.4487 28.4643 16.4752C27.2505 14.9658 27.0638 14.6682 27.1971 14.4541C27.5345 13.9126 32.122 8.19171 32.1757 8.2456C32.2073 8.27707 31.7288 10.5163 31.1127 13.2216ZM26.388 18.9185C27.4894 20.3007 27.6267 20.5304 27.4069 20.6203C27.2671 20.6776 25.9027 20.9802 24.375 21.293C22.8473 21.6057 21.5166 21.8886 21.418 21.9214C21.3005 21.9606 21.2766 21.9175 21.3486 21.7962C21.6311 21.3204 24.9415 17.2577 25.0228 17.2871C25.0735 17.3054 25.6878 18.0396 26.388 18.9185ZM46.1917 20.1405C46.1496 20.2746 45.4274 23.4235 44.5867 27.1382C43.746 30.8529 43.0225 34.0436 42.9787 34.2286L42.8991 34.5652L42.5776 34.2286C42.1123 33.7418 33.6049 22.9675 33.5287 22.769C33.484 22.6518 35.3412 22.2029 39.753 21.2646C43.2113 20.5291 46.0921 19.9204 46.1544 19.9121C46.2169 19.9036 46.2336 20.0064 46.1917 20.1405ZM9.35885 22.7976C12.2433 24.0103 14.6052 25.0493 14.6074 25.1065C14.6098 25.1639 12.9389 27.3186 10.8944 29.8948C7.79682 33.7978 7.15893 34.533 7.06824 34.3051C7.00838 34.1545 6.32701 31.2115 5.55412 27.7648C4.78109 24.3182 4.09542 21.2945 4.03028 21.0456C3.96528 20.7968 3.95751 20.593 4.0132 20.593C4.06875 20.593 6.47437 21.5851 9.35885 22.7976ZM28.6965 23.9004C28.657 24.0345 27.5902 28.7187 26.3259 34.31C25.0618 39.9012 23.9806 44.5781 23.9235 44.7033C23.8357 44.8952 22.6562 44.3673 16.391 41.3318C12.3053 39.3522 8.9447 37.679 8.9229 37.6134C8.90109 37.5478 10.9635 34.8701 13.5059 31.6627L18.1287 25.8311L23.1963 24.7559C25.9834 24.1646 28.3774 23.6754 28.5161 23.6688C28.6938 23.6603 28.7472 23.729 28.6965 23.9004ZM36.3895 31.5177C38.9318 34.7307 41.0184 37.4402 41.0264 37.5389C41.0427 37.7367 27.5378 44.3513 27.3999 44.2132C27.3539 44.1671 28.2073 40.1967 29.296 35.39C31.7051 24.7549 31.5435 25.4247 31.6662 25.5625C31.7217 25.6249 33.8472 28.3047 36.3895 31.5177Z" fill="url(#paint0_linear)"/>
<defs>
<linearGradient id="paint0_linear" x1="2.57031e-07" y1="30.8913" x2="50.1509" y2="17.2854" gradientUnits="userSpaceOnUse">
<stop stop-color="#3970FF"/>
<stop offset="1" stop-color="#17B9FE"/>
</linearGradient>
</defs>
</svg>
