<svg xmlns="http://www.w3.org/2000/svg" xmlns:xlink="http://www.w3.org/1999/xlink" viewBox="0 0 1304.5 369.4"><path d="M592.5 208.1c-11.5 0-21-3.2-28.3-9.7-7.4-6.5-11.1-15.2-11.1-26.1v-69.5h20.2v67.9c0 5.5 1.6 9.8 4.8 12.9s8 4.7 14.4 4.7 11.2-1.6 14.4-4.7 4.8-7.4 4.8-12.9v-67.9H632v69.5c0 10.9-3.7 19.6-11.1 26.1-7.3 6.5-16.8 9.7-28.4 9.7h0zm117.6-42.3v-63h20.4v103.3H715l-44.3-63.2v63.2h-20.4V102.7h15.5l44.3 63.1h0zm39.6 40.3V102.7h20.4V206h-20.4v.1zm88.6 2c-15.5 0-28.3-5.2-38.5-15.5-10.1-10.2-15.2-23-15.2-38.2 0-15.4 5.1-28.1 15.2-38.2 10.2-10.3 23.1-15.5 38.5-15.5 9.3 0 18 2.2 25.9 6.6s14.1 10.3 18.5 17.8l-17.6 10.2c-2.6-4.6-6.2-8.2-10.9-10.9-4.7-2.6-10-3.9-15.9-3.9-10 0-18.2 3.2-24.4 9.4-6.1 6.4-9.2 14.6-9.2 24.5 0 9.8 3 18 9.2 24.4 6.2 6.3 14.3 9.4 24.4 9.4 5.9 0 11.2-1.3 16-3.9s8.4-6.2 10.9-10.7l17.6 10.2c-4.4 7.5-10.6 13.4-18.5 17.8-8 4.4-16.7 6.5-26 6.5h0zm135.6-2h-22l-20.8-35.9h-15.5v35.9h-20.4V102.7h41.3c9.5 0 17.7 3.3 24.4 10s10 14.8 10 24.2c0 6.4-1.8 12.3-5.5 17.8-3.6 5.5-8.5 9.6-14.5 12.3l23 39.1zm-37.3-84.3h-21v30.6h21c3.8 0 7.1-1.5 9.9-4.5s4.1-6.6 4.1-10.9c0-4.2-1.4-7.8-4.1-10.8-2.8-2.9-6.1-4.4-9.9-4.4zm105.1-19.1h23l-35.4 63V206h-20.2v-40.3l-35.3-63h23l22.4 43.1 22.5-43.1h0zm32.9 0h38.5c9.8 0 18.2 3.3 25.1 10 6.8 6.7 10.2 14.9 10.2 24.7s-3.4 18-10.2 24.7c-6.9 6.7-15.3 10-25.1 10H1095v34h-20.4V102.7zm20.4 50.4h18.2c4.3 0 7.9-1.5 10.8-4.5s4.3-6.7 4.3-11.1c0-4.5-1.4-8.3-4.3-11.2-2.9-3-6.4-4.4-10.8-4.4H1095v31.2zm57.1-50.4h76v19.5h-27.9v83.9h-20.4v-83.9H1152l.1-19.5h0z" fill="#fff"/><linearGradient id="A" gradientUnits="userSpaceOnUse" x1="574.9" y1="241.14" x2="574.9" y2="276.14"><stop offset="0" stop-color="#00f649"/><stop offset="1" stop-color="#00d579"/></linearGradient><path d="M583.5 267.2v-26.1h4.6v35h-3.8l-18-26.1v26.1h-4.6v-35h3.8l18 26.1z" fill="url(#A)"/><linearGradient id="B" gradientUnits="userSpaceOnUse" x1="641.05" y1="241.14" x2="641.05" y2="276.14"><stop offset="0" stop-color="#00f649"/><stop offset="1" stop-color="#00d579"/></linearGradient><path d="M635.3 260.6v11.1h16.2v4.4h-20.9v-35h20.6v4.4h-16v10.8H650v4.4l-14.7-.1h0z" fill="url(#B)"/><linearGradient id="C" gradientUnits="userSpaceOnUse" x1="701.85" y1="241.14" x2="701.85" y2="276.14"><stop offset="0" stop-color="#00f649"/><stop offset="1" stop-color="#00d579"/></linearGradient><path d="M689.3 241.1h25.2v4.4h-10.4v30.6h-4.6v-30.6h-10.3l.1-4.4h0z" fill="url(#C)"/><linearGradient id="D" gradientUnits="userSpaceOnUse" x1="775.45" y1="241.14" x2="775.45" y2="276.14"><stop offset="0" stop-color="#00f649"/><stop offset="1" stop-color="#00d579"/></linearGradient><path d="M767.1 276.1h-5.4l-10-35h4.9l8 28.8 8.5-28.8h4.7l8.5 28.8 8-28.8h4.9l-10 35h-5.4l-8.3-28-8.4 28h0z" fill="url(#D)"/><linearGradient id="E" gradientUnits="userSpaceOnUse" x1="853.95" y1="240.49" x2="853.95" y2="276.79"><stop offset="0" stop-color="#00f649"/><stop offset="1" stop-color="#00d579"/></linearGradient><path d="M835.8 258.6c0-5.1 1.8-9.4 5.2-12.9 3.5-3.5 7.8-5.3 12.9-5.3s9.4 1.8 12.9 5.3 5.3 7.8 5.3 12.9c0 5-1.8 9.3-5.3 12.9-3.5 3.5-7.8 5.3-12.9 5.3s-9.4-1.8-12.9-5.3c-3.5-3.6-5.2-7.9-5.2-12.9zm31.6 0c0-3.9-1.3-7.1-3.9-9.7-2.5-2.6-5.7-3.9-9.6-3.9-3.8 0-7 1.3-9.6 3.9s-3.9 5.9-3.9 9.7 1.3 7 3.9 9.7c2.6 2.6 5.8 3.9 9.6 3.9 3.9 0 7.1-1.3 9.6-3.9 2.6-2.6 3.9-5.9 3.9-9.7z" fill="url(#E)"/><linearGradient id="F" gradientUnits="userSpaceOnUse" x1="925.6" y1="241.14" x2="925.6" y2="276.14"><stop offset="0" stop-color="#00f649"/><stop offset="1" stop-color="#00d579"/></linearGradient><path d="M938.5 276.1h-5.1l-7.9-13.4h-8.2v13.4h-4.6v-35h14c3 0 5.6 1.1 7.7 3.2s3.2 4.6 3.2 7.6c0 2.3-.7 4.3-2 6.2-1.4 1.9-3.1 3.2-5.2 4l8.1 14zm-11.9-30.6h-9.4v13h9.4c1.7 0 3.2-.6 4.4-1.9s1.9-2.8 1.9-4.6-.6-3.4-1.9-4.6c-1.2-1.3-2.6-1.9-4.4-1.9z" fill="url(#F)"/><linearGradient id="G" gradientUnits="userSpaceOnUse" x1="991" y1="241.14" x2="991" y2="276.14"><stop offset="0" stop-color="#00f649"/><stop offset="1" stop-color="#00d579"/></linearGradient><path d="M987.7 258.1l16 18H998l-15.1-16.8v16.8h-4.6v-35h4.6v15.8l14.6-15.8h5.7l-15.5 17h0z" fill="url(#G)"/><g fill="#fff"><path d="M1304.5 122.8c0 6.1-2.2 11.3-6.5 15.7-4.3 4.3-9.5 6.5-15.7 6.5s-11.3-2.2-15.7-6.5c-4.3-4.3-6.5-9.5-6.5-15.7 0-6.1 2.2-11.3 6.5-15.7 4.3-4.3 9.5-6.5 15.7-6.5s11.3 2.2 15.7 6.5 6.5 9.6 6.5 15.7zm-22.1 20.1c5.5 0 10.2-2 14-5.9 3.9-4 5.8-8.7 5.8-14.2s-1.9-10.2-5.8-14.2c-3.8-3.9-8.5-5.9-14-5.9s-10.2 2-14.1 5.9c-3.9 4-5.8 8.7-5.8 14.2s1.9 10.2 5.8 14.2c3.9 3.9 8.6 5.9 14.1 5.9zm.2-8.1c-3.3 0-6.2-1.2-8.6-3.5-2.4-2.4-3.5-5.2-3.5-8.4 0-3.3 1.2-6.1 3.5-8.4 2.4-2.4 5.2-3.5 8.6-3.5 2.1 0 4.1.5 5.9 1.6a11.11 11.11 0 0 1 4.3 4.3l-5.9 3.4c-.9-1.7-2.4-2.5-4.5-2.5-1.5 0-2.7.5-3.7 1.5s-1.4 2.2-1.4 3.7.5 2.7 1.4 3.7c1 1 2.2 1.5 3.7 1.5 2.1 0 3.6-.9 4.5-2.6l5.9 3.5c-1 1.8-2.5 3.2-4.3 4.3-1.8.9-3.8 1.4-5.9 1.4z"/><ellipse cx="221.7" cy="164.1" rx="104.4" ry="45.6"/></g><defs><path id="H" d="M404.7 159.9s-58.1 22.4-64.6 27c0 0 62.3-28.8 54.4-111.6 0 0-48.1 91.7-89.5 107.3 0 0 26.6 34 28.9 49.4 0 0 55.5-16.5 70.8-72.1z"/></defs><clipPath id="I"><use xlink:href="#H"/></clipPath><path d="M363.4,232l41.3-63.6V232H363.4z" clip-path="url(#I)" fill="#00ec5b"/><linearGradient id="J" gradientUnits="userSpaceOnUse" x1="372.574" y1="315.533" x2="372.574" y2="159.933"><stop offset="0" stop-color="#4ecc8d"/><stop offset="1" stop-color="#00d579"/></linearGradient><path d="M348 315.5s82.5-87.7 56.7-155.6c0 0-49.6 63.7-69.3 70l12.6 85.6h0z" fill="url(#J)"/><defs><path id="K" d="M404.7 159.9s-58.1 22.4-64.6 27c0 0 62.3-28.8 54.4-111.6 0 0-48.1 91.7-89.5 107.3 0 0 26.6 34 28.9 49.4 0 0 55.5-16.5 70.8-72.1z"/></defs><linearGradient id="L" gradientUnits="userSpaceOnUse" x1="404.725" y1="153.683" x2="305.025" y2="153.683"><stop offset="0" stop-color="#00f649"/><stop offset="1" stop-color="#00d579"/></linearGradient><use xlink:href="#K" fill="url(#L)"/><path d="M128.2 192.5c-.1.1-42.4 56.3-43.4 59.9 0 0-11.3 23.2 25.1 25.6 0 0 19.4-1.3 72.8-21.6 0 0 46.8-14.7 16.6-48.9 0 0 37.9 12.2 50.6 30 .7 1 1.3 2.1 2.1 3 5.3 6.7 24.1 34.1 3.7 66.4 0 .1-.1.1-.1.2-1.4 2.8-40.1 74.3-187.3 39.6 0 0 191 67.9 279.7-31.2l-3.7-36.6s-2.8-41.2-14.7-63.1c-1.1-2.1-2.2-4.2-3.5-6.2-6.6-10.4-22.7-41.2-64.4-59.1l-14.4 14.7 6.9-18.1c-.1 0-33.9-12.8-44.1-9.5l-3.4 17.8-4.8-18.3c-.1 0-23.4-3.7-47.4 3.2l9.8 17.6s0 .1-.1.1c-1.3-.4-13.6-3.1-23.2 17.5l-91.1-18.1 78.3 35.1h0z" fill="#fff"/><defs><path id="M" d="M68.3 346.6s-87.4-28.4-64.5-133.8c0 0 26.4-124.6 212.8-175.1 0 0 145.5-41.4 177.9-37.5 0 0-7.2 50.9-154.5 88.1L142.9 143c-7.7 6-14.1 17.6-14.1 17.6l-5 11.4-73.9-14.7 78.3 35.2-43.4 59.9s-9.6 21.8 25.1 25.6l72.8-21.6 10.2 2 13.3 39.9-9.5 35.5-67.1 12.9-46.4 4.8-14.9-4.9h0z"/></defs><linearGradient id="N" gradientUnits="userSpaceOnUse" x1="394.525" y1="175.753" x2="0" y2="175.753"><stop offset="0" stop-color="#00f649"/><stop offset="1" stop-color="#00d579"/></linearGradient><use xlink:href="#M" fill="url(#N)"/><clipPath id="O"><use xlink:href="#M"/></clipPath><linearGradient id="P" gradientUnits="userSpaceOnUse" x1=".025" y1="173.933" x2="-18.975" y2="173.933"><stop offset="0" stop-color="#00f649"/><stop offset="1" stop-color="#00d579"/></linearGradient><path d="M-19-3.7H0v355.2h-19V-3.7z" clip-path="url(#O)" fill="url(#P)"/><defs><path id="Q" d="M306.4 182.1s41.7-8.8 88.2-106.8c0 0-53.4 40.9-79.3 43.8 0 0 76.2-32.2 79.3-119 0 0-249.2 112.8-283.9 169.2l30.4 6s9.7-23.3 23.3-17.6l-9.8-17.7s14.5-8.7 47.4-3.2l4.8 18.3 3.4-17.8s9.6-4.6 44.1 9.5l-6.9 18.1 14.4-14.7c-.1.3 34 13.4 44.6 31.9h0z"/></defs><linearGradient id="R" gradientUnits="userSpaceOnUse" x1="252.575" y1=".133" x2="252.575" y2="182.101"><stop offset="0" stop-color="#4ecc8d"/><stop offset="1" stop-color="#00d579"/></linearGradient><use xlink:href="#Q" fill="url(#R)"/><clipPath id="S"><use xlink:href="#Q"/></clipPath><linearGradient id="T" gradientUnits="userSpaceOnUse" x1="252.575" y1=".233" x2="252.575" y2="109.133"><stop offset="0" stop-color="#4ecc8d"/><stop offset="1" stop-color="#00d579"/></linearGradient><path d="M394.5.2L110.6 109.1V.2h283.9z" clip-path="url(#S)" fill="url(#T)"/><linearGradient id="U" gradientUnits="userSpaceOnUse" x1="142.975" y1="203.569" x2="167.825" y2="203.569"><stop offset="0" stop-color="#00f649"/><stop offset="1" stop-color="#00d579"/></linearGradient><path d="M167.8 196.1h0l-22.3 16.7s-6.9-8.2 2-15.1c-.1 0 8.8-6.5 20.3-1.6" fill="url(#U)"/><linearGradient id="V" gradientUnits="userSpaceOnUse" x1="267.183" y1="283.97" x2="68.325" y2="283.97"><stop offset="0" stop-color="#00f649"/><stop offset="1" stop-color="#fff"/></linearGradient><path d="M68.3 346.6s103.7 7.8 122.6-31.7-8.2-58.5-8.2-58.5 27.1-8.7 26.7-27.9c0 0 1.1-7.8-10.2-21 0 0 41 10.9 50.7 27.2 1.5 2.5 3.1 4.8 4.8 7.1 9.4 12.2 33.8 55.3-30.3 94.9-75.8 46.7-156.1 9.9-156.1 9.9h0z" fill="url(#V)"/></svg>